G04 Layer_Color=8388736*
%FSLAX24Y24*%
%MOIN*%
G70*
G01*
G75*
%ADD30C,0.0880*%
%ADD31C,0.1580*%
%ADD32O,0.0780X0.1580*%
%ADD33C,0.1280*%
%ADD34R,0.1280X0.1280*%
%ADD35C,0.0780*%
%ADD36C,0.0671*%
%ADD37R,0.0671X0.0671*%
%ADD38O,0.0580X0.1080*%
%ADD39O,0.0580X0.0880*%
%ADD40C,0.0631*%
%ADD41C,0.0440*%
G54D30*
X4500Y9000D02*
D03*
X3500Y11000D02*
D03*
X4500D02*
D03*
X3500Y10000D02*
D03*
X4500D02*
D03*
X3500Y9000D02*
D03*
G54D31*
X23500Y1000D02*
D03*
X3500Y7000D02*
D03*
Y18000D02*
D03*
X30550Y1800D02*
D03*
Y14000D02*
D03*
X1000Y1800D02*
D03*
Y14000D02*
D03*
G54D32*
X16500Y20000D02*
D03*
X15500D02*
D03*
X14500D02*
D03*
X13500D02*
D03*
X12500D02*
D03*
X11500D02*
D03*
X9500D02*
D03*
X8500D02*
D03*
X7500D02*
D03*
X6500D02*
D03*
X5500D02*
D03*
X4500D02*
D03*
Y1000D02*
D03*
X5500D02*
D03*
X6500D02*
D03*
X7500D02*
D03*
X8500D02*
D03*
X9500D02*
D03*
X10500D02*
D03*
X11500D02*
D03*
X13100D02*
D03*
X14100D02*
D03*
X15100D02*
D03*
X16100D02*
D03*
X17100D02*
D03*
X18100D02*
D03*
X19100D02*
D03*
X20100D02*
D03*
X17500Y20000D02*
D03*
X18500D02*
D03*
X21100Y1000D02*
D03*
X22100D02*
D03*
G54D33*
X28000Y15500D02*
D03*
G54D34*
Y17500D02*
D03*
G54D35*
X22000Y16000D02*
D03*
X20000D02*
D03*
X21000D02*
D03*
G54D36*
X5500D02*
D03*
X7500Y17000D02*
D03*
X22000Y20000D02*
D03*
X23000D02*
D03*
X24000D02*
D03*
X25000D02*
D03*
X26000D02*
D03*
G54D37*
X5500Y18000D02*
D03*
X21000Y20000D02*
D03*
G54D38*
X3000Y14000D02*
D03*
X4000D02*
D03*
X5000D02*
D03*
X6000D02*
D03*
X7000D02*
D03*
X8000D02*
D03*
X9000D02*
D03*
X10000D02*
D03*
X11000D02*
D03*
X12000D02*
D03*
X13000D02*
D03*
X14000D02*
D03*
X15000D02*
D03*
X16000D02*
D03*
X17000D02*
D03*
X18000D02*
D03*
G54D39*
X14000Y17000D02*
D03*
X15000D02*
D03*
G54D40*
X23500Y17500D02*
D03*
X23864Y18136D02*
D03*
G54D41*
X13100Y17136D02*
D03*
X8000Y4336D02*
D03*
X14680Y16186D02*
D03*
X14500Y17646D02*
D03*
X19170Y19696D02*
D03*
M02*
