G04 Layer_Physical_Order=1*
G04 Layer_Color=255*
%FSLAX24Y24*%
%MOIN*%
G70*
G01*
G75*
%ADD10C,0.0315*%
%ADD11C,0.0800*%
%ADD12C,0.1500*%
%ADD13O,0.0700X0.1500*%
%ADD14C,0.1200*%
%ADD15R,0.1200X0.1200*%
%ADD16C,0.0700*%
%ADD17C,0.0591*%
%ADD18R,0.0591X0.0591*%
%ADD19O,0.0500X0.1000*%
%ADD20O,0.0500X0.0800*%
%ADD21C,0.0551*%
%ADD22C,0.0360*%
G36*
X4801Y13311D02*
X5171Y13094D01*
X5315Y13006D01*
X5303Y13011D01*
X5378Y12967D01*
X5447Y12924D01*
X5361Y12983D01*
X5171Y13094D01*
X5361Y12983D01*
X5495Y12891D01*
X5522Y12869D01*
X5583Y12803D01*
X5639Y12714D01*
Y11752D01*
X5571Y11707D01*
X5228Y11558D01*
X4852Y11487D01*
X4835Y11501D01*
X4751Y11546D01*
X4731Y11557D01*
X4731Y11557D01*
X4618Y11591D01*
X4500Y11603D01*
X4382Y11591D01*
X4269Y11557D01*
X4165Y11501D01*
X4165Y11501D01*
X4033Y11439D01*
X3774Y11520D01*
X3477Y11676D01*
X3361Y11752D01*
Y12714D01*
X3417Y12803D01*
X3478Y12869D01*
X3921Y13231D01*
X4650Y13309D01*
X4667Y13309D01*
X4691Y13310D01*
X5303Y13011D01*
X4801Y13311D01*
X4801D01*
D02*
G37*
G36*
X32000Y14933D02*
X31833Y14830D01*
X31302Y14695D01*
X31213Y14685D01*
X31080Y14794D01*
X30915Y14882D01*
X30736Y14936D01*
X30550Y14955D01*
X30364Y14936D01*
X30185Y14882D01*
X30020Y14794D01*
X29875Y14675D01*
X29756Y14530D01*
X29668Y14365D01*
X29614Y14186D01*
X29595Y14000D01*
X29614Y13814D01*
X29668Y13635D01*
X29756Y13470D01*
X29875Y13325D01*
X30020Y13206D01*
X30185Y13118D01*
X30364Y13064D01*
X30550Y13045D01*
X30736Y13064D01*
X30915Y13118D01*
X31080Y13206D01*
X31213Y13315D01*
X31302Y13305D01*
X31833Y13170D01*
X32000Y13067D01*
Y2733D01*
X31833Y2630D01*
X31302Y2495D01*
X31213Y2485D01*
X31080Y2594D01*
X30915Y2682D01*
X30736Y2736D01*
X30550Y2755D01*
X30364Y2736D01*
X30185Y2682D01*
X30020Y2594D01*
X29875Y2475D01*
X29756Y2330D01*
X29668Y2165D01*
X29614Y1986D01*
X29595Y1800D01*
X29614Y1614D01*
X29668Y1435D01*
X29756Y1270D01*
X29875Y1125D01*
X30020Y1006D01*
X30185Y918D01*
X30364Y864D01*
X30550Y845D01*
X30736Y864D01*
X30915Y918D01*
X31080Y1006D01*
X31213Y1115D01*
X31302Y1105D01*
X31833Y970D01*
X32000Y867D01*
Y0D01*
X32000Y0D01*
X24911D01*
X24808Y79D01*
X24694Y227D01*
X24428Y787D01*
X24436Y814D01*
X24455Y1000D01*
X24436Y1186D01*
X24382Y1365D01*
X24294Y1530D01*
X24175Y1675D01*
X24030Y1794D01*
X23865Y1882D01*
X23686Y1936D01*
X23500Y1955D01*
X23314Y1936D01*
X22983Y2640D01*
X22939Y2849D01*
X22956Y2903D01*
X25895Y5842D01*
X25953Y5916D01*
X25989Y6003D01*
X26001Y6097D01*
Y19360D01*
X26000Y19458D01*
X26250Y19567D01*
X26250Y19567D01*
X26250Y19567D01*
X26250Y19567D01*
X26308Y19612D01*
X26353Y19647D01*
Y19647D01*
X26398Y19705D01*
X26433Y19750D01*
Y19750D01*
X26483Y19871D01*
X26483Y19871D01*
X26483Y19871D01*
X26500Y20000D01*
X26492Y20056D01*
X26483Y20129D01*
X26483Y20129D01*
X26461Y20182D01*
Y20182D01*
X26433Y20250D01*
X26577Y20675D01*
X26804Y21000D01*
X32000D01*
Y14933D01*
D02*
G37*
G36*
X3527Y20850D02*
X3945Y20400D01*
X3945Y20213D01*
Y19681D01*
X3889Y19518D01*
X3850Y19461D01*
X3530Y19079D01*
X3377Y18946D01*
X3369Y18942D01*
X3314Y18936D01*
X3135Y18882D01*
X2970Y18794D01*
X2825Y18675D01*
X2706Y18530D01*
X2618Y18365D01*
X2564Y18186D01*
X2545Y18000D01*
X2564Y17814D01*
X2618Y17635D01*
X2706Y17470D01*
X2825Y17325D01*
X2970Y17206D01*
X3135Y17118D01*
X3314Y17064D01*
X3500Y17045D01*
X3686Y17064D01*
X3865Y17118D01*
X4030Y17206D01*
X4175Y17325D01*
X4294Y17470D01*
X4306Y17493D01*
X5073Y17594D01*
X5282Y17411D01*
X5372Y17313D01*
X5438Y17208D01*
X5098Y16417D01*
X4858Y16359D01*
X4780Y16348D01*
X4693Y16312D01*
X4631Y16265D01*
X4631Y16265D01*
X4619Y16255D01*
X4428Y16064D01*
X4428Y16064D01*
X4182Y15818D01*
X3936Y15572D01*
X3936Y15572D01*
X3745Y15381D01*
X3735Y15369D01*
X3233Y14789D01*
X3120Y14699D01*
Y14000D01*
X2880D01*
Y14579D01*
X2823Y14556D01*
X2750Y14500D01*
X2694Y14427D01*
X2690Y14415D01*
X2450Y14348D01*
X1882Y14365D01*
X1794Y14530D01*
X1675Y14675D01*
X1530Y14794D01*
X1365Y14882D01*
X1186Y14936D01*
X1000Y14955D01*
X814Y14936D01*
X787Y14928D01*
X227Y15195D01*
X79Y15308D01*
X0Y15411D01*
Y21000D01*
X0Y21000D01*
X3313D01*
X3527Y20850D01*
D02*
G37*
G36*
X2639Y13419D02*
Y12271D01*
X2639Y11722D01*
X2639Y11722D01*
X2639Y11500D01*
X2652Y11407D01*
X2688Y11320D01*
X2745Y11245D01*
X2794Y11196D01*
X2858Y11077D01*
X3060Y10466D01*
X2999Y10335D01*
X2999Y10335D01*
X2943Y10231D01*
X2909Y10118D01*
X2897Y10000D01*
X2909Y9882D01*
X2943Y9769D01*
X2999Y9665D01*
X3051Y9500D01*
X2999Y9335D01*
X2943Y9231D01*
X2909Y9118D01*
X2897Y9000D01*
X2909Y8882D01*
X2943Y8769D01*
X2999Y8665D01*
Y8665D01*
X3000Y8664D01*
X3036Y8455D01*
X2997Y7996D01*
X2913Y7747D01*
X2825Y7675D01*
X2706Y7530D01*
X2618Y7365D01*
X2564Y7186D01*
X2545Y7000D01*
X2564Y6814D01*
X2618Y6635D01*
X2706Y6470D01*
X2825Y6325D01*
X2970Y6206D01*
X3135Y6118D01*
X3314Y6064D01*
X3500Y6045D01*
X3686Y6064D01*
X3865Y6118D01*
X4030Y6206D01*
X4175Y6325D01*
X4294Y6470D01*
X4382Y6635D01*
X4436Y6814D01*
X4455Y7000D01*
X4436Y7186D01*
X4382Y7365D01*
X4294Y7530D01*
X4188Y7659D01*
X4206Y7786D01*
X4268Y8006D01*
X4391Y8212D01*
X4532Y8400D01*
X4618Y8409D01*
X4731Y8443D01*
X4835Y8499D01*
X4835D01*
X4852Y8513D01*
X5228Y8442D01*
X5571Y8293D01*
X5636Y8250D01*
X5639Y8224D01*
X5639Y7993D01*
X5639Y7993D01*
X5639Y7746D01*
X5652Y7653D01*
X5688Y7566D01*
X5745Y7491D01*
X6139Y7097D01*
Y7064D01*
Y2547D01*
X5994Y2368D01*
X5500Y1955D01*
X5356Y1936D01*
X5356Y1936D01*
X5223Y1880D01*
X5108Y1792D01*
X4892D01*
X4777Y1880D01*
X4777D01*
X4644Y1936D01*
X4644Y1936D01*
X4500Y1955D01*
X4500Y1955D01*
X4356Y1936D01*
X4356Y1936D01*
X4356Y1936D01*
X4223Y1880D01*
X4108Y1792D01*
X4108D01*
X4020Y1677D01*
X4020Y1677D01*
X3964Y1544D01*
X3964Y1544D01*
X3945Y1400D01*
X3945Y1400D01*
X3945Y1319D01*
Y787D01*
X3945Y600D01*
X3527Y150D01*
X3313Y0D01*
X787D01*
X770Y77D01*
X836Y298D01*
X1186Y864D01*
X1365Y918D01*
X1530Y1006D01*
X1675Y1125D01*
X1794Y1270D01*
X1882Y1435D01*
X1936Y1614D01*
X1955Y1800D01*
X1936Y1986D01*
X1882Y2165D01*
X1794Y2330D01*
X1675Y2475D01*
X1530Y2594D01*
X1365Y2682D01*
X1186Y2736D01*
X1000Y2755D01*
X814Y2736D01*
X787Y2728D01*
X227Y2995D01*
X79Y3108D01*
X0Y3211D01*
Y12589D01*
X79Y12692D01*
X227Y12805D01*
X787Y13072D01*
X814Y13064D01*
X1000Y13045D01*
X1186Y13064D01*
X1365Y13118D01*
X1530Y13206D01*
X1675Y13325D01*
X1794Y13470D01*
X1882Y13635D01*
X2639Y13419D01*
D02*
G37*
G36*
X7565Y12916D02*
X7639Y12815D01*
Y8127D01*
X6852Y7472D01*
X6765Y7489D01*
X6755Y7501D01*
X6361Y7896D01*
Y7928D01*
Y12815D01*
X6435Y12916D01*
X7000Y13181D01*
X7565Y12916D01*
D02*
G37*
G36*
X24845Y16897D02*
X24880Y16833D01*
Y7196D01*
X20845Y3161D01*
X20788Y3086D01*
X20752Y3000D01*
X20739Y2906D01*
Y2594D01*
X20100Y2218D01*
X19461Y2594D01*
Y6918D01*
Y6951D01*
X19484Y6974D01*
X23210Y10700D01*
X23592Y11082D01*
X23592Y11082D01*
X23755Y11245D01*
X23765Y11258D01*
X23765Y11258D01*
X23812Y11320D01*
X23848Y11407D01*
X23861Y11500D01*
X23861Y11712D01*
X23861Y11712D01*
X23861Y12271D01*
Y13421D01*
Y13576D01*
Y16693D01*
X23866Y16996D01*
X24092Y17215D01*
X24845Y16897D01*
D02*
G37*
G36*
X10945Y19923D02*
Y19600D01*
X10964Y19456D01*
X11020Y19323D01*
X11096Y19224D01*
X11139Y18995D01*
X11139Y18737D01*
X11152Y18643D01*
X11188Y18556D01*
X11245Y18482D01*
X11397Y18329D01*
X11397Y18329D01*
X11790Y17936D01*
X12285Y17442D01*
X12310Y16366D01*
X11889Y15945D01*
X11889Y15945D01*
X11745Y15801D01*
X11688Y15726D01*
X11652Y15640D01*
X11639Y15546D01*
X11639Y15402D01*
X11558Y15075D01*
X11514Y15014D01*
X11120Y14699D01*
Y14000D01*
Y13410D01*
X11500Y13429D01*
X11880Y13410D01*
Y14000D01*
X12120D01*
Y13415D01*
X12290Y13453D01*
X13037Y13103D01*
X13150Y12522D01*
Y8306D01*
X9146Y4302D01*
X8962Y4310D01*
X8808Y4343D01*
X8361Y4630D01*
Y12815D01*
X8486Y12986D01*
X8880Y13301D01*
Y14000D01*
Y14608D01*
X8667Y14617D01*
X8117Y14688D01*
X8000Y14704D01*
X8000Y14704D01*
X7478Y15131D01*
X7417Y15197D01*
X7361Y15286D01*
Y15725D01*
X7500Y16500D01*
X7629Y16517D01*
X7629Y16517D01*
X7750Y16567D01*
X7750Y16567D01*
X7853Y16647D01*
Y16647D01*
X7933Y16750D01*
X7933Y16750D01*
Y16750D01*
X7983Y16871D01*
X7983Y16871D01*
X7983Y16871D01*
X7990Y16927D01*
X8000Y17000D01*
X8000Y17000D01*
X7992Y17056D01*
X7992Y17056D01*
X7983Y17129D01*
X7983Y17129D01*
X7961Y17182D01*
Y17182D01*
X7933Y17250D01*
X7933Y17250D01*
X7861Y17344D01*
Y18453D01*
X8006Y18632D01*
X8500Y19045D01*
X8644Y19064D01*
X8644Y19064D01*
X8777Y19120D01*
X8892Y19208D01*
X9108D01*
X9223Y19120D01*
X9223Y19120D01*
X9356Y19064D01*
X9356Y19064D01*
X9500Y19045D01*
X9500Y19045D01*
X9644Y19064D01*
X9644Y19064D01*
X9644Y19064D01*
X9777Y19120D01*
X9892Y19208D01*
X9892D01*
X9980Y19323D01*
X9980Y19323D01*
X10036Y19456D01*
X10036Y19456D01*
X10055Y19600D01*
X10055Y19600D01*
X10055Y19681D01*
Y19923D01*
X10500Y20140D01*
X10945Y19923D01*
D02*
G37*
G36*
X20605Y20231D02*
Y20120D01*
X21000D01*
Y19880D01*
X20605D01*
X20605Y19605D01*
X21105Y19385D01*
X21105Y19385D01*
X23081Y17409D01*
X23113Y17377D01*
X23064Y16605D01*
X22640Y16471D01*
X22352Y16423D01*
X22277Y16480D01*
X22277D01*
X22144Y16536D01*
X22144Y16536D01*
X22000Y16555D01*
X21856Y16536D01*
X21500Y16502D01*
X21144Y16536D01*
X21144Y16536D01*
X21144Y16536D01*
X21000Y16555D01*
X20856Y16536D01*
X20856Y16536D01*
X20856Y16536D01*
X20500Y16502D01*
X20144Y16536D01*
X20000Y16555D01*
X19856Y16536D01*
X19856Y16536D01*
X19856Y16536D01*
X19723Y16480D01*
X19723D01*
X19723Y16480D01*
X19608Y16392D01*
X19608Y16392D01*
X19520Y16277D01*
X19520Y16277D01*
Y16277D01*
X19464Y16144D01*
X19464Y16144D01*
X19464Y16144D01*
X19445Y16000D01*
X19464Y15856D01*
X19464Y15856D01*
X19520Y15723D01*
X19608Y15608D01*
X19608Y15608D01*
X19608D01*
X19723Y15520D01*
X19723Y15520D01*
X19723D01*
X19856Y15464D01*
X19856Y15464D01*
X19856Y15464D01*
X20000Y15445D01*
X20000Y15445D01*
X20144Y15464D01*
X20144Y15464D01*
X20144Y15464D01*
X20500Y15498D01*
X20856Y15464D01*
X20856Y15464D01*
X20856Y15464D01*
X21000Y15445D01*
X21144Y15464D01*
X21144Y15464D01*
X21144Y15464D01*
X21500Y15498D01*
X21856Y15464D01*
X22000Y15445D01*
X22144Y15464D01*
X22144Y15464D01*
X22277Y15520D01*
X22277D01*
X22352Y15577D01*
X22640Y15529D01*
X23064Y15395D01*
X23139Y15353D01*
Y13575D01*
Y13427D01*
Y11682D01*
Y11649D01*
X23116Y11626D01*
X19390Y7900D01*
X19008Y7518D01*
X19008Y7518D01*
X18845Y7355D01*
X18788Y7280D01*
X18752Y7193D01*
X18739Y7100D01*
X18739Y6855D01*
X18739Y6855D01*
X18739Y6329D01*
Y2547D01*
X18594Y2368D01*
X18100Y1955D01*
X17956Y1936D01*
X17823Y1880D01*
X17708Y1792D01*
X17492D01*
X17377Y1880D01*
X17244Y1936D01*
X17244Y1936D01*
X17100Y1955D01*
X16956Y1936D01*
X16956Y1936D01*
X16823Y1880D01*
X16708Y1792D01*
X16492D01*
X16377Y1880D01*
X16244Y1936D01*
X16244Y1936D01*
X16100Y1955D01*
X15956Y1936D01*
X15956Y1936D01*
X15823Y1880D01*
X15708Y1792D01*
X15492D01*
X15377Y1880D01*
X15244Y1936D01*
X15244Y1936D01*
X15100Y1955D01*
X14956Y1936D01*
X14956Y1936D01*
X14823Y1880D01*
X14708Y1792D01*
X14492D01*
X14377Y1880D01*
X14244Y1936D01*
X14244Y1936D01*
X14100Y1955D01*
X13956Y1936D01*
X13956Y1936D01*
X13823Y1880D01*
X13708Y1792D01*
X13492D01*
X13377Y1880D01*
X13244Y1936D01*
X13100Y1955D01*
X12956Y1936D01*
X12956Y1936D01*
X12823Y1880D01*
X12763Y1835D01*
X12643Y1805D01*
X12538Y1824D01*
X11861Y2523D01*
Y3297D01*
X15710Y7146D01*
X15757Y7193D01*
X16255Y7691D01*
X16312Y7766D01*
X16348Y7853D01*
X16361Y7946D01*
X16361Y8192D01*
X16361Y8192D01*
X16361Y8717D01*
Y12714D01*
X16417Y12803D01*
X16478Y12869D01*
X17000Y13296D01*
X17000Y13296D01*
X17046Y13302D01*
X17176Y13312D01*
X17500Y13314D01*
X17824Y13312D01*
X17954Y13302D01*
X18000Y13296D01*
X18000Y13296D01*
X18117Y13312D01*
X18117Y13312D01*
X18117Y13312D01*
X18227Y13357D01*
X18227D01*
X18227Y13357D01*
X18321Y13429D01*
X18321D01*
X18321Y13429D01*
X18393Y13523D01*
X18393Y13523D01*
X18393Y13523D01*
X18438Y13633D01*
X18438Y13633D01*
X18454Y13750D01*
X18454Y13750D01*
X18454Y14126D01*
X18454Y14250D01*
X18454Y14250D01*
X18438Y14367D01*
X18438Y14367D01*
X18393Y14477D01*
X18321Y14571D01*
X18227Y14643D01*
X18117Y14688D01*
X18000Y14704D01*
X18000Y14704D01*
X17954Y14698D01*
X17824Y14688D01*
X17500Y14686D01*
X17176Y14688D01*
X17046Y14698D01*
X17000Y14704D01*
X16954Y14698D01*
X16824Y14688D01*
X16500Y14686D01*
X16176Y14688D01*
X16046Y14698D01*
X16000Y14704D01*
X15883Y14688D01*
X15883D01*
X15773Y14643D01*
X15773D01*
X15773Y14643D01*
X15608Y14571D01*
X15392D01*
X15227Y14643D01*
X15227Y14643D01*
X15117Y14688D01*
X15000Y14704D01*
X14849Y14806D01*
X14716Y15383D01*
X14714Y15576D01*
X14872Y15854D01*
X14951Y15915D01*
X15012Y15994D01*
X15012Y15995D01*
X15393Y16623D01*
X15393Y16623D01*
X15438Y16733D01*
Y16733D01*
X15454Y16850D01*
X15454Y16850D01*
X15454Y16974D01*
X15454Y17150D01*
X15438Y17267D01*
X15438Y17267D01*
X15393Y17377D01*
X15393Y17377D01*
X15393Y17377D01*
X15321Y17471D01*
Y17471D01*
X15227Y17543D01*
X15227Y17543D01*
X15122Y17748D01*
X15510Y18624D01*
X15590Y18639D01*
X19170D01*
X19264Y18652D01*
X19351Y18688D01*
X19425Y18745D01*
X19483Y18820D01*
X19519Y18907D01*
X19531Y19000D01*
Y19448D01*
X19531Y19574D01*
X19541Y19597D01*
X19541Y19597D01*
X19554Y19696D01*
X19554Y19696D01*
X19541Y19795D01*
X19541D01*
X19502Y19888D01*
X19502Y19888D01*
X19502D01*
X19438Y20023D01*
X19436Y20066D01*
X20054Y20812D01*
X20605Y20231D01*
D02*
G37*
G36*
X7668Y4145D02*
X7729Y4065D01*
X7767Y4036D01*
X7812Y3984D01*
X7755Y3193D01*
X7643Y3117D01*
X6861Y3494D01*
Y4114D01*
X7630Y4237D01*
X7668Y4145D01*
D02*
G37*
%LPC*%
G36*
X27880Y18200D02*
X27300D01*
Y17620D01*
X27880D01*
Y18200D01*
D02*
G37*
G36*
X28700D02*
X28120D01*
Y17620D01*
X28700D01*
Y18200D01*
D02*
G37*
G36*
Y17380D02*
X27300D01*
Y16926D01*
X27300Y16800D01*
X27386Y16013D01*
X27332Y15947D01*
X27257Y15808D01*
X27212Y15657D01*
X27196Y15500D01*
X27212Y15343D01*
X27257Y15192D01*
X27332Y15053D01*
X27432Y14932D01*
X27553Y14832D01*
X27692Y14757D01*
X27843Y14712D01*
X28000Y14696D01*
X28157Y14712D01*
X28308Y14757D01*
X28447Y14832D01*
X28568Y14932D01*
X28668Y15053D01*
X28743Y15192D01*
X28788Y15343D01*
X28804Y15500D01*
X28788Y15657D01*
X28743Y15808D01*
X28668Y15947D01*
X28614Y16013D01*
X28700Y16800D01*
X28700Y16926D01*
Y17380D01*
D02*
G37*
G36*
X9880Y14590D02*
X9500Y14571D01*
X9120Y14590D01*
Y14000D01*
Y13410D01*
X9500Y13429D01*
X9880Y13410D01*
Y14000D01*
Y14590D01*
D02*
G37*
G36*
X10880D02*
X10500Y14571D01*
X10120Y14590D01*
Y14000D01*
Y13410D01*
X10500Y13429D01*
X10880Y13410D01*
Y14000D01*
Y14590D01*
D02*
G37*
%LPD*%
G54D10*
X19170Y19000D02*
Y19696D01*
X14500Y19000D02*
X19170D01*
X14500Y17646D02*
Y18500D01*
X23500Y11500D02*
Y13500D01*
X21000Y20000D02*
X23500Y17500D01*
Y13500D02*
Y17500D01*
X6500Y1000D02*
Y7246D01*
X6000Y7746D02*
X6500Y7246D01*
X6000Y7746D02*
Y14000D01*
X7500Y17000D02*
Y20000D01*
X4000Y14000D02*
Y15126D01*
X4874Y16000D01*
X5500D01*
X14000Y17000D02*
Y17419D01*
X13500Y17919D02*
X14000Y17419D01*
X13500Y17919D02*
Y20000D01*
X21100Y1000D02*
Y2906D01*
X25240Y7047D01*
Y18760D01*
X24000Y20000D02*
X25240Y18760D01*
X12000Y14000D02*
Y15546D01*
X13173Y16719D01*
X14000D02*
Y17000D01*
X22000Y20000D02*
X23864Y18136D01*
X11500Y18737D02*
X13100Y17136D01*
X11500Y18737D02*
Y20000D01*
X10500Y1000D02*
Y3136D01*
X15000Y7636D01*
Y14000D01*
X16000Y7946D02*
Y14000D01*
X11500Y3446D02*
X16000Y7946D01*
X11500Y1000D02*
Y3446D01*
X8000Y4336D02*
Y14000D01*
X14000Y7316D02*
Y14000D01*
X9500Y2816D02*
X14000Y7316D01*
X9500Y1000D02*
Y2816D01*
X7500Y1000D02*
Y2146D01*
X13510Y8157D01*
Y15016D01*
X14680Y16186D01*
X3000Y11500D02*
X3500Y11000D01*
X3000Y11500D02*
Y14000D01*
X5500Y18000D02*
X7000Y16500D01*
Y14000D02*
Y16500D01*
X19100Y7100D02*
X23500Y11500D01*
X19100Y1000D02*
Y7100D01*
X25000Y20000D02*
X25640Y19360D01*
Y6097D02*
Y19360D01*
X22100Y2556D02*
X25640Y6097D01*
X22100Y1000D02*
Y2556D01*
X13173Y16719D02*
X14000D01*
X14500Y18500D02*
Y20000D01*
G54D11*
X4500Y9000D02*
D03*
X3500Y11000D02*
D03*
X4500D02*
D03*
X3500Y10000D02*
D03*
X4500D02*
D03*
X3500Y9000D02*
D03*
G54D12*
X23500Y1000D02*
D03*
X3500Y7000D02*
D03*
Y18000D02*
D03*
X30550Y1800D02*
D03*
Y14000D02*
D03*
X1000Y1800D02*
D03*
Y14000D02*
D03*
G54D13*
X16500Y20000D02*
D03*
X15500D02*
D03*
X14500D02*
D03*
X13500D02*
D03*
X12500D02*
D03*
X11500D02*
D03*
X9500D02*
D03*
X8500D02*
D03*
X7500D02*
D03*
X6500D02*
D03*
X5500D02*
D03*
X4500D02*
D03*
Y1000D02*
D03*
X5500D02*
D03*
X6500D02*
D03*
X7500D02*
D03*
X8500D02*
D03*
X9500D02*
D03*
X10500D02*
D03*
X11500D02*
D03*
X13100D02*
D03*
X14100D02*
D03*
X15100D02*
D03*
X16100D02*
D03*
X17100D02*
D03*
X18100D02*
D03*
X19100D02*
D03*
X20100D02*
D03*
X17500Y20000D02*
D03*
X18500D02*
D03*
X21100Y1000D02*
D03*
X22100D02*
D03*
G54D14*
X28000Y15500D02*
D03*
G54D15*
Y17500D02*
D03*
G54D16*
X22000Y16000D02*
D03*
X20000D02*
D03*
X21000D02*
D03*
G54D17*
X5500D02*
D03*
X7500Y17000D02*
D03*
X22000Y20000D02*
D03*
X23000D02*
D03*
X24000D02*
D03*
X25000D02*
D03*
X26000D02*
D03*
G54D18*
X5500Y18000D02*
D03*
X21000Y20000D02*
D03*
G54D19*
X3000Y14000D02*
D03*
X4000D02*
D03*
X5000D02*
D03*
X6000D02*
D03*
X7000D02*
D03*
X8000D02*
D03*
X9000D02*
D03*
X10000D02*
D03*
X11000D02*
D03*
X12000D02*
D03*
X13000D02*
D03*
X14000D02*
D03*
X15000D02*
D03*
X16000D02*
D03*
X17000D02*
D03*
X18000D02*
D03*
G54D20*
X14000Y17000D02*
D03*
X15000D02*
D03*
G54D21*
X23500Y17500D02*
D03*
X23864Y18136D02*
D03*
G54D22*
X13100Y17136D02*
D03*
X8000Y4336D02*
D03*
X14680Y16186D02*
D03*
X14500Y17646D02*
D03*
X19170Y19696D02*
D03*
M02*
