G04 Layer_Color=128*
%FSLAX24Y24*%
%MOIN*%
G70*
G01*
G75*
%ADD27C,0.0050*%
G54D27*
X4300Y9000D02*
X4700D01*
X4500Y8800D02*
Y9200D01*
X3300Y11000D02*
X3700D01*
X3500Y10800D02*
Y11200D01*
X4300Y11000D02*
X4700D01*
X4500Y10800D02*
Y11200D01*
X3300Y10000D02*
X3700D01*
X3500Y9800D02*
Y10200D01*
X4300Y10000D02*
X4700D01*
X4500Y9800D02*
Y10200D01*
X3300Y9000D02*
X3700D01*
X3500Y8800D02*
Y9200D01*
X22870Y1000D02*
X24130D01*
X23500Y370D02*
Y1630D01*
X2870Y7000D02*
X4130D01*
X3500Y6370D02*
Y7630D01*
X2870Y18000D02*
X4130D01*
X3500Y17370D02*
Y18630D01*
X16300Y20000D02*
X16700D01*
X16500Y19800D02*
Y20200D01*
X15300Y20000D02*
X15700D01*
X15500Y19800D02*
Y20200D01*
X14300Y20000D02*
X14700D01*
X14500Y19800D02*
Y20200D01*
X13300Y20000D02*
X13700D01*
X13500Y19800D02*
Y20200D01*
X12300Y20000D02*
X12700D01*
X12500Y19800D02*
Y20200D01*
X11300Y20000D02*
X11700D01*
X11500Y19800D02*
Y20200D01*
X9300Y20000D02*
X9700D01*
X9500Y19800D02*
Y20200D01*
X8300Y20000D02*
X8700D01*
X8500Y19800D02*
Y20200D01*
X7300Y20000D02*
X7700D01*
X7500Y19800D02*
Y20200D01*
X6300Y20000D02*
X6700D01*
X6500Y19800D02*
Y20200D01*
X5300Y20000D02*
X5700D01*
X5500Y19800D02*
Y20200D01*
X4300Y20000D02*
X4700D01*
X4500Y19800D02*
Y20200D01*
X4300Y1000D02*
X4700D01*
X4500Y800D02*
Y1200D01*
X5300Y1000D02*
X5700D01*
X5500Y800D02*
Y1200D01*
X6300Y1000D02*
X6700D01*
X6500Y800D02*
Y1200D01*
X7300Y1000D02*
X7700D01*
X7500Y800D02*
Y1200D01*
X8300Y1000D02*
X8700D01*
X8500Y800D02*
Y1200D01*
X9300Y1000D02*
X9700D01*
X9500Y800D02*
Y1200D01*
X10300Y1000D02*
X10700D01*
X10500Y800D02*
Y1200D01*
X11300Y1000D02*
X11700D01*
X11500Y800D02*
Y1200D01*
X12900Y1000D02*
X13300D01*
X13100Y800D02*
Y1200D01*
X13900Y1000D02*
X14300D01*
X14100Y800D02*
Y1200D01*
X14900Y1000D02*
X15300D01*
X15100Y800D02*
Y1200D01*
X15900Y1000D02*
X16300D01*
X16100Y800D02*
Y1200D01*
X16900Y1000D02*
X17300D01*
X17100Y800D02*
Y1200D01*
X17900Y1000D02*
X18300D01*
X18100Y800D02*
Y1200D01*
X18900Y1000D02*
X19300D01*
X19100Y800D02*
Y1200D01*
X19900Y1000D02*
X20300D01*
X20100Y800D02*
Y1200D01*
X17300Y20000D02*
X17700D01*
X17500Y19800D02*
Y20200D01*
X18300Y20000D02*
X18700D01*
X18500Y19800D02*
Y20200D01*
X20900Y1000D02*
X21300D01*
X21100Y800D02*
Y1200D01*
X21900Y1000D02*
X22300D01*
X22100Y800D02*
Y1200D01*
X27740Y15500D02*
X28260D01*
X28000Y15240D02*
Y15760D01*
X27740Y17500D02*
X28260D01*
X28000Y17240D02*
Y17760D01*
X21840Y16000D02*
X22160D01*
X22000Y15840D02*
Y16160D01*
X19840Y16000D02*
X20160D01*
X20000Y15840D02*
Y16160D01*
X20840Y16000D02*
X21160D01*
X21000Y15840D02*
Y16160D01*
X5323Y16000D02*
X5677D01*
X5500Y15823D02*
Y16177D01*
X7323Y17000D02*
X7677D01*
X7500Y16823D02*
Y17177D01*
X5323Y18000D02*
X5677D01*
X5500Y17823D02*
Y18177D01*
X29950Y1800D02*
X31150D01*
X30550Y1200D02*
Y2400D01*
X29950Y14000D02*
X31150D01*
X30550Y13400D02*
Y14600D01*
X400Y1800D02*
X1600D01*
X1000Y1200D02*
Y2400D01*
X400Y14000D02*
X1600D01*
X1000Y13400D02*
Y14600D01*
X2800Y14000D02*
X3200D01*
X3000Y13800D02*
Y14200D01*
X3800Y14000D02*
X4200D01*
X4000Y13800D02*
Y14200D01*
X4800Y14000D02*
X5200D01*
X5000Y13800D02*
Y14200D01*
X5800Y14000D02*
X6200D01*
X6000Y13800D02*
Y14200D01*
X6800Y14000D02*
X7200D01*
X7000Y13800D02*
Y14200D01*
X7800Y14000D02*
X8200D01*
X8000Y13800D02*
Y14200D01*
X8800Y14000D02*
X9200D01*
X9000Y13800D02*
Y14200D01*
X9800Y14000D02*
X10200D01*
X10000Y13800D02*
Y14200D01*
X10800Y14000D02*
X11200D01*
X11000Y13800D02*
Y14200D01*
X11800Y14000D02*
X12200D01*
X12000Y13800D02*
Y14200D01*
X12800Y14000D02*
X13200D01*
X13000Y13800D02*
Y14200D01*
X13800Y14000D02*
X14200D01*
X14000Y13800D02*
Y14200D01*
X14800Y14000D02*
X15200D01*
X15000Y13800D02*
Y14200D01*
X15800Y14000D02*
X16200D01*
X16000Y13800D02*
Y14200D01*
X16800Y14000D02*
X17200D01*
X17000Y13800D02*
Y14200D01*
X17800Y14000D02*
X18200D01*
X18000Y13800D02*
Y14200D01*
X13840Y17000D02*
X14160D01*
X14000Y16840D02*
Y17160D01*
X14840Y17000D02*
X15160D01*
X15000Y16840D02*
Y17160D01*
X20823Y20000D02*
X21177D01*
X21000Y19823D02*
Y20177D01*
X21823Y20000D02*
X22177D01*
X22000Y19823D02*
Y20177D01*
X22823Y20000D02*
X23177D01*
X23000Y19823D02*
Y20177D01*
X23823Y20000D02*
X24177D01*
X24000Y19823D02*
Y20177D01*
X24823Y20000D02*
X25177D01*
X25000Y19823D02*
Y20177D01*
X25823Y20000D02*
X26177D01*
X26000Y19823D02*
Y20177D01*
X23343Y17500D02*
X23657D01*
X23500Y17343D02*
Y17657D01*
X23706Y18136D02*
X24021D01*
X23864Y17979D02*
Y18294D01*
X13020Y17136D02*
X13180D01*
X13100Y17056D02*
Y17216D01*
X7920Y4336D02*
X8080D01*
X8000Y4256D02*
Y4416D01*
X14600Y16186D02*
X14760D01*
X14680Y16106D02*
Y16266D01*
X14420Y17646D02*
X14580D01*
X14500Y17566D02*
Y17726D01*
X19090Y19696D02*
X19250D01*
X19170Y19616D02*
Y19776D01*
M02*
