G04 Layer_Color=65535*
%FSLAX24Y24*%
%MOIN*%
G70*
G01*
G75*
%ADD25C,0.0100*%
%ADD26C,0.0039*%
%ADD27C,0.0050*%
%ADD28C,0.0079*%
%ADD29C,0.0250*%
G54D25*
X6930Y17000D02*
G03*
X6930Y17000I-430J0D01*
G01*
X13504Y16492D02*
G03*
X13504Y17508I996J508D01*
G01*
X27000Y14500D02*
X29000D01*
X27000D02*
Y18500D01*
X29000Y14500D02*
Y18500D01*
X27000D02*
X29000D01*
X4500Y15000D02*
Y19000D01*
X8500D01*
Y15000D02*
Y19000D01*
X4500Y15000D02*
X8500D01*
X13500Y16500D02*
Y17500D01*
X3000Y1000D02*
X2600D01*
X2400Y1200D01*
X2600Y1400D01*
X3000D01*
X2700D01*
Y1000D01*
X2600Y1600D02*
X3000D01*
X2800D01*
X2700Y1700D01*
X2600Y1800D01*
Y1900D01*
X2400Y2599D02*
X3000D01*
Y2300D01*
X2900Y2200D01*
X2700D01*
X2600Y2300D01*
Y2599D01*
Y2799D02*
X2900D01*
X3000Y2899D01*
Y3199D01*
X2600D01*
X3000Y3399D02*
Y3599D01*
Y3499D01*
X2600D01*
Y3399D01*
X3000Y3899D02*
X2600D01*
Y4199D01*
X2700Y4299D01*
X3000D01*
Y4599D02*
Y4799D01*
X2900Y4899D01*
X2700D01*
X2600Y4799D01*
Y4599D01*
X2700Y4499D01*
X2900D01*
X3000Y4599D01*
X31600Y12500D02*
X31000D01*
Y12100D01*
X31500Y11500D02*
X31600Y11600D01*
Y11800D01*
X31500Y11900D01*
X31100D01*
X31000Y11800D01*
Y11600D01*
X31100Y11500D01*
X31600Y11300D02*
X31000D01*
Y11000D01*
X31100Y10901D01*
X31500D01*
X31600Y11000D01*
Y11300D01*
Y10101D02*
X31000D01*
Y9801D01*
X31100Y9701D01*
X31500D01*
X31600Y9801D01*
Y10101D01*
X31000Y9501D02*
Y9301D01*
Y9401D01*
X31400D01*
Y9501D01*
X31000Y9001D02*
Y8701D01*
X31100Y8601D01*
X31200Y8701D01*
Y8901D01*
X31300Y9001D01*
X31400Y8901D01*
Y8601D01*
X30800Y8401D02*
X31400D01*
Y8101D01*
X31300Y8001D01*
X31100D01*
X31000Y8101D01*
Y8401D01*
Y7802D02*
Y7602D01*
Y7702D01*
X31600D01*
Y7802D01*
X31400Y7202D02*
Y7002D01*
X31300Y6902D01*
X31000D01*
Y7202D01*
X31100Y7302D01*
X31200Y7202D01*
Y6902D01*
X31400Y6702D02*
X31100D01*
X31000Y6602D01*
Y6302D01*
X30900D01*
X30800Y6402D01*
Y6502D01*
X31000Y6302D02*
X31400D01*
X16565Y18065D02*
X15965D01*
Y17665D01*
X16565Y17465D02*
X15965D01*
Y17165D01*
X16065Y17065D01*
X16465D01*
X16565Y17165D01*
Y17465D01*
X9000Y16000D02*
X9600D01*
Y15700D01*
X9500Y15600D01*
X9300D01*
X9200Y15700D01*
Y16000D01*
X9000Y15400D02*
Y15200D01*
Y15300D01*
X9600D01*
X9500Y15400D01*
X29500Y18500D02*
X30100D01*
Y18200D01*
X30000Y18100D01*
X29800D01*
X29700Y18200D01*
Y18500D01*
X29500Y17800D02*
Y17600D01*
X29600Y17500D01*
X29800D01*
X29900Y17600D01*
Y17800D01*
X29800Y17900D01*
X29600D01*
X29500Y17800D01*
X29900Y17300D02*
X29600D01*
X29500Y17200D01*
X29600Y17100D01*
X29500Y17000D01*
X29600Y16901D01*
X29900D01*
X29500Y16401D02*
Y16601D01*
X29600Y16701D01*
X29800D01*
X29900Y16601D01*
Y16401D01*
X29800Y16301D01*
X29700D01*
Y16701D01*
X29900Y16101D02*
X29500D01*
X29700D01*
X29800Y16001D01*
X29900Y15901D01*
Y15801D01*
X20900Y15000D02*
X20800Y15100D01*
X20600D01*
X20500Y15000D01*
Y14900D01*
X20600Y14800D01*
X20800D01*
X20900Y14700D01*
Y14600D01*
X20800Y14500D01*
X20600D01*
X20500Y14600D01*
X21100Y15100D02*
Y14500D01*
X21300Y14700D01*
X21500Y14500D01*
Y15100D01*
X20500Y18500D02*
Y19100D01*
X20800D01*
X20900Y19000D01*
Y18800D01*
X20800Y18700D01*
X20500D01*
X21100Y19000D02*
X21200Y19100D01*
X21400D01*
X21500Y19000D01*
Y18900D01*
X21300Y18700D01*
Y18600D02*
Y18500D01*
G54D26*
X19000Y15500D02*
X23000D01*
X19000D02*
Y16500D01*
X23000D01*
Y15500D02*
Y16500D01*
G54D27*
X6450Y16550D02*
Y17400D01*
X6550Y16600D02*
Y17400D01*
G54D28*
X20500Y20500D02*
X26500D01*
X20500Y19500D02*
X26500D01*
Y20500D01*
X20500Y19500D02*
Y20500D01*
G54D29*
X-50650Y66750D02*
Y69249D01*
X-49817Y68416D01*
X-48984Y69249D01*
Y66750D01*
X-47734Y68416D02*
X-46901D01*
X-46485Y68000D01*
Y66750D01*
X-47734D01*
X-48151Y67167D01*
X-47734Y67583D01*
X-46485D01*
X-45652Y66750D02*
X-44819D01*
X-45235D01*
Y68416D01*
X-45652D01*
X-43569Y66750D02*
X-42319D01*
X-41903Y67167D01*
X-42319Y67583D01*
X-43152D01*
X-43569Y68000D01*
X-43152Y68416D01*
X-41903D01*
X-38571D02*
X-37738Y66750D01*
X-36904Y68416D01*
X-35655Y66750D02*
X-34822D01*
X-34405Y67167D01*
Y68000D01*
X-34822Y68416D01*
X-35655D01*
X-36071Y68000D01*
Y67167D01*
X-35655Y66750D01*
X-33572Y68416D02*
Y67167D01*
X-33156Y66750D01*
X-31906D01*
Y68416D01*
X-31073Y66750D02*
X-29823D01*
X-29407Y67167D01*
X-29823Y67583D01*
X-30656D01*
X-31073Y68000D01*
X-30656Y68416D01*
X-29407D01*
X-26075Y66750D02*
Y68416D01*
X-24825D01*
X-24408Y68000D01*
Y66750D01*
X-23159Y69666D02*
Y68833D01*
X-23575Y68416D01*
X-20660Y66750D02*
X-21493D01*
X-21909Y67167D01*
Y68000D01*
X-21493Y68416D01*
X-20660D01*
X-20243Y68000D01*
Y67583D01*
X-21909D01*
X-18994Y68833D02*
Y68416D01*
X-19410D01*
X-18577D01*
X-18994D01*
Y67167D01*
X-18577Y66750D01*
X-16078D02*
X-16911D01*
X-17327Y67167D01*
Y68000D01*
X-16911Y68416D01*
X-16078D01*
X-15661Y68000D01*
Y67583D01*
X-17327D01*
X-14828Y66750D02*
X-13579D01*
X-13162Y67167D01*
X-13579Y67583D01*
X-14412D01*
X-14828Y68000D01*
X-14412Y68416D01*
X-13162D01*
X-9830Y65917D02*
Y68416D01*
X-8580D01*
X-8164Y68000D01*
Y67167D01*
X-8580Y66750D01*
X-9830D01*
X-6914Y68416D02*
X-6081D01*
X-5665Y68000D01*
Y66750D01*
X-6914D01*
X-7331Y67167D01*
X-6914Y67583D01*
X-5665D01*
X-4831Y66750D02*
X-3582D01*
X-3165Y67167D01*
X-3582Y67583D01*
X-4415D01*
X-4831Y68000D01*
X-4415Y68416D01*
X-3165D01*
X583Y66750D02*
X1417D01*
X1833Y67167D01*
Y68000D01*
X1417Y68416D01*
X583D01*
X167Y68000D01*
Y67167D01*
X583Y66750D01*
X2666Y69249D02*
Y66750D01*
X3916D01*
X4332Y67167D01*
Y67583D01*
Y68000D01*
X3916Y68416D01*
X2666D01*
X5165Y66750D02*
X5998D01*
X5582D01*
Y69249D01*
X5165D01*
X7248Y66750D02*
X8081D01*
X7664D01*
Y68416D01*
X7248D01*
X10164Y65917D02*
X10580D01*
X10997Y66333D01*
Y68416D01*
X9747D01*
X9331Y68000D01*
Y67167D01*
X9747Y66750D01*
X10997D01*
X13079D02*
X12246D01*
X11830Y67167D01*
Y68000D01*
X12246Y68416D01*
X13079D01*
X13496Y68000D01*
Y67583D01*
X11830D01*
X14329Y66750D02*
X15579D01*
X15995Y67167D01*
X15579Y67583D01*
X14746D01*
X14329Y68000D01*
X14746Y68416D01*
X15995D01*
X20993Y69249D02*
Y66750D01*
X19744D01*
X19327Y67167D01*
Y68000D01*
X19744Y68416D01*
X20993D01*
X23076Y66750D02*
X22243D01*
X21827Y67167D01*
Y68000D01*
X22243Y68416D01*
X23076D01*
X23493Y68000D01*
Y67583D01*
X21827D01*
X27241Y68833D02*
Y68416D01*
X26825D01*
X27658D01*
X27241D01*
Y67167D01*
X27658Y66750D01*
X29324D02*
X30157D01*
X30574Y67167D01*
Y68000D01*
X30157Y68416D01*
X29324D01*
X28908Y68000D01*
Y67167D01*
X29324Y66750D01*
X31407Y68416D02*
Y67167D01*
X31823Y66750D01*
X33073D01*
Y68416D01*
X34323Y68833D02*
Y68416D01*
X33906D01*
X34739D01*
X34323D01*
Y67167D01*
X34739Y66750D01*
X38488Y68416D02*
Y67167D01*
X38904Y66750D01*
X40154D01*
Y68416D01*
X41404Y68833D02*
Y68416D01*
X40987D01*
X41820D01*
X41404D01*
Y67167D01*
X41820Y66750D01*
X43070D02*
X43903D01*
X43486D01*
Y68416D01*
X43070D01*
X45152Y66750D02*
X45985D01*
X45569D01*
Y69249D01*
X45152D01*
X47235Y66750D02*
X48068D01*
X47652D01*
Y68416D01*
X47235D01*
X49318Y66750D02*
X50567D01*
X50984Y67167D01*
X50567Y67583D01*
X49734D01*
X49318Y68000D01*
X49734Y68416D01*
X50984D01*
X53066Y66750D02*
X52233D01*
X51817Y67167D01*
Y68000D01*
X52233Y68416D01*
X53066D01*
X53483Y68000D01*
Y67583D01*
X51817D01*
X54316Y68416D02*
Y66750D01*
Y67583D01*
X54733Y68000D01*
X55149Y68416D01*
X55566D01*
X56815Y67583D02*
Y69666D01*
Y67167D02*
Y66750D01*
X57648Y67583D02*
Y69666D01*
Y67167D02*
Y66750D01*
X-57050Y73299D02*
Y70800D01*
X-55384D01*
X-53301D02*
X-54134D01*
X-54551Y71217D01*
Y72050D01*
X-54134Y72466D01*
X-53301D01*
X-52885Y72050D01*
Y71633D01*
X-54551D01*
X-52052Y70800D02*
X-50802D01*
X-50385Y71217D01*
X-50802Y71633D01*
X-51635D01*
X-52052Y72050D01*
X-51635Y72466D01*
X-50385D01*
X-47053Y73299D02*
Y70800D01*
X-45804D01*
X-45387Y71217D01*
Y71633D01*
Y72050D01*
X-45804Y72466D01*
X-47053D01*
X-44138D02*
X-43304D01*
X-42888Y72050D01*
Y70800D01*
X-44138D01*
X-44554Y71217D01*
X-44138Y71633D01*
X-42888D01*
X-42055Y70800D02*
Y72466D01*
X-40805D01*
X-40389Y72050D01*
Y70800D01*
X-37890Y73299D02*
Y70800D01*
X-39139D01*
X-39556Y71217D01*
Y72050D01*
X-39139Y72466D01*
X-37890D01*
X-35807Y70800D02*
X-36640D01*
X-37056Y71217D01*
Y72050D01*
X-36640Y72466D01*
X-35807D01*
X-35390Y72050D01*
Y71633D01*
X-37056D01*
X-34557Y70800D02*
X-33308D01*
X-32891Y71217D01*
X-33308Y71633D01*
X-34141D01*
X-34557Y72050D01*
X-34141Y72466D01*
X-32891D01*
X-28309Y70800D02*
X-29142D01*
X-29559Y71217D01*
Y72050D01*
X-29142Y72466D01*
X-28309D01*
X-27893Y72050D01*
Y71633D01*
X-29559D01*
X-27060Y70800D02*
Y72466D01*
X-25810D01*
X-25394Y72050D01*
Y70800D01*
X-22061Y72466D02*
X-21228Y70800D01*
X-20395Y72466D01*
X-19562Y70800D02*
X-18729D01*
X-19146D01*
Y72466D01*
X-19562D01*
X-17063Y70800D02*
X-16230D01*
X-15813Y71217D01*
Y72050D01*
X-16230Y72466D01*
X-17063D01*
X-17479Y72050D01*
Y71217D01*
X-17063Y70800D01*
X-14980D02*
X-14147D01*
X-14564D01*
Y73299D01*
X-14980D01*
X-11648Y70800D02*
X-12481D01*
X-12898Y71217D01*
Y72050D01*
X-12481Y72466D01*
X-11648D01*
X-11231Y72050D01*
Y71633D01*
X-12898D01*
X-9982Y72883D02*
Y72466D01*
X-10398D01*
X-9565D01*
X-9982D01*
Y71217D01*
X-9565Y70800D01*
X-4150Y73299D02*
Y70800D01*
X-5400D01*
X-5817Y71217D01*
Y72050D01*
X-5400Y72466D01*
X-4150D01*
X-2068Y70800D02*
X-2901D01*
X-3317Y71217D01*
Y72050D01*
X-2901Y72466D01*
X-2068D01*
X-1651Y72050D01*
Y71633D01*
X-3317D01*
X-818Y70800D02*
X15D01*
X-402D01*
Y73299D01*
X-818D01*
X1264Y70800D02*
X2098D01*
X1681D01*
Y72466D01*
X1264D01*
X3347Y70800D02*
Y72466D01*
X3764D01*
X4180Y72050D01*
Y70800D01*
Y72050D01*
X4597Y72466D01*
X5013Y72050D01*
Y70800D01*
X5846D02*
X6679D01*
X6263D01*
Y72466D01*
X5846D01*
X8346Y72883D02*
Y72466D01*
X7929D01*
X8762D01*
X8346D01*
Y71217D01*
X8762Y70800D01*
X11261D02*
X10428D01*
X10012Y71217D01*
Y72050D01*
X10428Y72466D01*
X11261D01*
X11678Y72050D01*
Y71633D01*
X10012D01*
X12511Y70800D02*
Y72466D01*
X13760D01*
X14177Y72050D01*
Y70800D01*
X15427Y72883D02*
Y72466D01*
X15010D01*
X15843D01*
X15427D01*
Y71217D01*
X15843Y70800D01*
X19592D02*
X20425D01*
X20008D01*
Y73299D01*
X19592D01*
X22091Y72466D02*
X22924D01*
X23341Y72050D01*
Y70800D01*
X22091D01*
X21675Y71217D01*
X22091Y71633D01*
X23341D01*
X26673Y70800D02*
X27923D01*
X28339Y71217D01*
X27923Y71633D01*
X27089D01*
X26673Y72050D01*
X27089Y72466D01*
X28339D01*
X29172D02*
Y71217D01*
X29589Y70800D01*
X30838D01*
Y72466D01*
X31671D02*
Y70800D01*
Y71633D01*
X32088Y72050D01*
X32504Y72466D01*
X32921D01*
X34587Y70800D02*
Y72883D01*
Y72050D01*
X34171D01*
X35004D01*
X34587D01*
Y72883D01*
X35004Y73299D01*
X36670Y72466D02*
X37503D01*
X37919Y72050D01*
Y70800D01*
X36670D01*
X36253Y71217D01*
X36670Y71633D01*
X37919D01*
X40418Y72466D02*
X39169D01*
X38752Y72050D01*
Y71217D01*
X39169Y70800D01*
X40418D01*
X42501D02*
X41668D01*
X41252Y71217D01*
Y72050D01*
X41668Y72466D01*
X42501D01*
X42918Y72050D01*
Y71633D01*
X41252D01*
X46250Y72466D02*
Y71217D01*
X46666Y70800D01*
X47916D01*
Y72466D01*
X49166Y72883D02*
Y72466D01*
X48749D01*
X49582D01*
X49166D01*
Y71217D01*
X49582Y70800D01*
X50832D02*
X51665D01*
X51248D01*
Y72466D01*
X50832D01*
X52914Y70800D02*
X53748D01*
X53331D01*
Y73299D01*
X52914D01*
X54997Y70800D02*
X55830D01*
X55414D01*
Y72466D01*
X54997D01*
X57080Y70800D02*
X58329D01*
X58746Y71217D01*
X58329Y71633D01*
X57496D01*
X57080Y72050D01*
X57496Y72466D01*
X58746D01*
X59995D02*
X60829D01*
X61245Y72050D01*
Y70800D01*
X59995D01*
X59579Y71217D01*
X59995Y71633D01*
X61245D01*
X62078Y73299D02*
Y70800D01*
X63328D01*
X63744Y71217D01*
Y71633D01*
Y72050D01*
X63328Y72466D01*
X62078D01*
X64577Y70800D02*
X65410D01*
X64994D01*
Y73299D01*
X64577D01*
X67910Y70800D02*
X67077D01*
X66660Y71217D01*
Y72050D01*
X67077Y72466D01*
X67910D01*
X68326Y72050D01*
Y71633D01*
X66660D01*
X69159Y70800D02*
Y71217D01*
X69576D01*
Y70800D01*
X69159D01*
X71242D02*
Y71217D01*
X71658D01*
Y70800D01*
X71242D01*
X73325D02*
Y71217D01*
X73741D01*
Y70800D01*
X73325D01*
X75407D02*
Y71217D01*
X75824D01*
Y70800D01*
X75407D01*
M02*
