G04 Layer_Physical_Order=2*
G04 Layer_Color=16711680*
%FSLAX24Y24*%
%MOIN*%
G70*
G01*
G75*
%ADD10C,0.0315*%
%ADD11C,0.0800*%
%ADD12C,0.1500*%
%ADD13O,0.0700X0.1500*%
%ADD14C,0.1200*%
%ADD15R,0.1200X0.1200*%
%ADD16C,0.0700*%
%ADD17C,0.0591*%
%ADD18R,0.0591X0.0591*%
%ADD19O,0.0500X0.1000*%
%ADD20O,0.0500X0.0800*%
%ADD21C,0.0551*%
%ADD22C,0.0360*%
%ADD23R,0.0400X0.0500*%
%ADD24R,0.0500X0.0400*%
G36*
X22131Y17294D02*
X22089Y17176D01*
X21896Y16957D01*
X21596D01*
X21503Y16945D01*
X21416Y16909D01*
X21341Y16851D01*
X21138Y16648D01*
X21129Y16643D01*
X20392Y16392D01*
X20277Y16480D01*
X20277D01*
X20144Y16536D01*
X20144Y16536D01*
X20000Y16555D01*
X20000Y16555D01*
X19856Y16536D01*
X19856Y16536D01*
X19856Y16536D01*
X19723Y16480D01*
X19608Y16392D01*
X19608D01*
X19520Y16277D01*
X19520Y16277D01*
X19464Y16144D01*
X19464Y16144D01*
X19449Y16029D01*
X18386D01*
X18193Y16102D01*
X17700Y16550D01*
Y17450D01*
X18353Y17776D01*
X21751D01*
X22131Y17294D01*
D02*
G37*
G36*
X3527Y20850D02*
X3945Y20400D01*
X3945Y20213D01*
Y19681D01*
X3889Y19518D01*
X3850Y19461D01*
X3530Y19079D01*
X3377Y18946D01*
X3369Y18942D01*
X3314Y18936D01*
X3135Y18882D01*
X2970Y18794D01*
X2825Y18675D01*
X2706Y18530D01*
X2618Y18365D01*
X2564Y18186D01*
X2545Y18000D01*
X2564Y17814D01*
X2618Y17635D01*
X2706Y17470D01*
X2825Y17325D01*
X2970Y17206D01*
X3135Y17118D01*
X3314Y17064D01*
X3500Y17045D01*
X3686Y17064D01*
X3865Y17118D01*
X4030Y17206D01*
X4175Y17325D01*
X4294Y17470D01*
X4339Y17554D01*
X5013Y17599D01*
X5312Y17295D01*
X5500Y16825D01*
X5482Y16778D01*
X5250Y16433D01*
X5250Y16433D01*
X5147Y16353D01*
Y16353D01*
X5102Y16295D01*
Y16295D01*
X5067Y16250D01*
X5067Y16250D01*
X5017Y16129D01*
X5017Y16129D01*
X5000Y16000D01*
X5000Y16000D01*
X5017Y15871D01*
X5017Y15871D01*
X5039Y15818D01*
X5067Y15750D01*
X5102Y15705D01*
X5102Y15705D01*
X5102D01*
X5147Y15647D01*
X5192Y15612D01*
X5192Y15612D01*
X5250Y15567D01*
X5303Y15546D01*
X5371Y15517D01*
X5500Y15500D01*
X5500Y15500D01*
X5556Y15508D01*
X5556Y15508D01*
X5629Y15517D01*
X5629Y15517D01*
X5682Y15539D01*
X5682D01*
X5750Y15567D01*
X5750Y15567D01*
X5853Y15647D01*
X5853Y15647D01*
X5933Y15750D01*
X5933Y15750D01*
X5983Y15871D01*
X5983Y15871D01*
X5998Y15988D01*
X6366Y16356D01*
X6399Y16389D01*
X6429Y16405D01*
X7147Y16647D01*
X7205Y16602D01*
X7205D01*
X7250Y16567D01*
X7250Y16567D01*
X7371Y16517D01*
X7371Y16517D01*
X7500Y16500D01*
X7500Y16500D01*
X7629Y16517D01*
X7682Y16539D01*
X7750Y16567D01*
X7853Y16647D01*
X7853D01*
X7933Y16750D01*
X7933Y16750D01*
X7983Y16871D01*
X7983Y16871D01*
X7990Y16927D01*
X7990Y16927D01*
X8000Y17000D01*
X8732Y17286D01*
X11943D01*
X12717Y17136D01*
X12730Y17037D01*
X12740Y17014D01*
Y16399D01*
X12752Y16306D01*
X12788Y16219D01*
X12845Y16144D01*
X13516Y15474D01*
X13514Y15382D01*
X13501Y15279D01*
X13364Y15029D01*
X13137Y14793D01*
X13081Y14747D01*
X13000Y14704D01*
X12883Y14688D01*
X12333Y14617D01*
X12120Y14608D01*
Y14000D01*
Y13301D01*
X12514Y12986D01*
X12639Y12815D01*
Y7178D01*
Y7146D01*
X12616Y7122D01*
X8790Y3296D01*
X8409Y2915D01*
X8409Y2915D01*
X8245Y2751D01*
X8235Y2739D01*
X7741Y2156D01*
X7653Y2082D01*
X7421Y2134D01*
X7184Y2682D01*
X7187Y3014D01*
X8069Y3895D01*
X8168Y3995D01*
X8192Y4004D01*
X8271Y4065D01*
X8332Y4145D01*
X8370Y4237D01*
X8383Y4336D01*
X8370Y4435D01*
X8332Y4528D01*
X8271Y4607D01*
X8192Y4668D01*
X8099Y4706D01*
X8000Y4719D01*
X7901Y4706D01*
X7808Y4668D01*
X7729Y4607D01*
X7668Y4528D01*
X7658Y4505D01*
X7569Y4416D01*
X6484Y3331D01*
X6215Y3061D01*
X6215Y3061D01*
X5459Y2305D01*
X5131Y2008D01*
X4715Y1946D01*
X4500Y1955D01*
X4356Y1936D01*
X4356Y1936D01*
X4356Y1936D01*
X4223Y1880D01*
X4108Y1792D01*
X4020Y1677D01*
X4020Y1677D01*
X3964Y1544D01*
X3964Y1544D01*
X3945Y1400D01*
X3945Y1400D01*
X3945Y1319D01*
Y787D01*
X3945Y600D01*
X3527Y150D01*
X3313Y0D01*
X787D01*
X770Y77D01*
X836Y298D01*
X1186Y864D01*
X1365Y918D01*
X1530Y1006D01*
X1675Y1125D01*
X1794Y1270D01*
X1882Y1435D01*
X1936Y1614D01*
X1955Y1800D01*
X1936Y1986D01*
X1882Y2165D01*
X1794Y2330D01*
X1675Y2475D01*
X1530Y2594D01*
X1365Y2682D01*
X1186Y2736D01*
X1000Y2755D01*
X814Y2736D01*
X787Y2728D01*
X227Y2995D01*
X79Y3108D01*
X0Y3211D01*
Y12589D01*
X79Y12692D01*
X227Y12805D01*
X787Y13072D01*
X814Y13064D01*
X1000Y13045D01*
X1186Y13064D01*
X1365Y13118D01*
X1530Y13206D01*
X1675Y13325D01*
X2370Y13181D01*
X2498Y13117D01*
X2639Y12947D01*
X2652Y12853D01*
X2688Y12766D01*
X2745Y12692D01*
X2605Y12091D01*
X2548Y12017D01*
X2512Y11930D01*
X2500Y11836D01*
Y9640D01*
X2512Y9546D01*
X2548Y9459D01*
X2605Y9385D01*
X2905Y9085D01*
X2897Y9000D01*
X2897Y9000D01*
X2909Y8882D01*
X2943Y8769D01*
X2999Y8665D01*
X3000Y8664D01*
X3036Y8455D01*
X2997Y7996D01*
X2913Y7747D01*
X2825Y7675D01*
X2706Y7530D01*
X2618Y7365D01*
X2564Y7186D01*
X2545Y7000D01*
X2564Y6814D01*
X2618Y6635D01*
X2706Y6470D01*
X2825Y6325D01*
X2970Y6206D01*
X3135Y6118D01*
X3314Y6064D01*
X3500Y6045D01*
X3686Y6064D01*
X3865Y6118D01*
X4030Y6206D01*
X4175Y6325D01*
X4294Y6470D01*
X4382Y6635D01*
X4436Y6814D01*
X4455Y7000D01*
X4436Y7186D01*
X4382Y7365D01*
X4294Y7530D01*
X4188Y7659D01*
X4206Y7786D01*
X4268Y8006D01*
X4391Y8212D01*
X4532Y8400D01*
X4618Y8409D01*
X4618Y8409D01*
X4731Y8443D01*
Y8443D01*
X4815Y8488D01*
X4835Y8499D01*
X4835D01*
X4835Y8499D01*
X4926Y8574D01*
X4987Y8648D01*
X5001Y8665D01*
X5001Y8665D01*
X5001Y8665D01*
X5057Y8769D01*
X5091Y8882D01*
X5103Y9000D01*
X5103Y9000D01*
X5091Y9118D01*
X5091Y9118D01*
X5057Y9231D01*
X5057Y9231D01*
X5001Y9335D01*
X4949Y9500D01*
X5001Y9665D01*
X5001Y9665D01*
Y9665D01*
X5057Y9769D01*
X5091Y9882D01*
X5103Y10000D01*
X5091Y10118D01*
X5057Y10231D01*
X5001Y10335D01*
Y10335D01*
X5001Y10335D01*
X4949Y10500D01*
X5001Y10665D01*
X5001Y10665D01*
Y10665D01*
X5057Y10769D01*
X5091Y10882D01*
X5103Y11000D01*
X5094Y11088D01*
X5102Y11137D01*
X5403Y11670D01*
X5606Y11839D01*
X5993D01*
X6670Y11839D01*
X6670Y11839D01*
X6764Y11839D01*
X6822Y11847D01*
X6857Y11852D01*
X6857Y11852D01*
X6944Y11888D01*
X6944Y11888D01*
X7019Y11945D01*
X7137Y12063D01*
X7255Y12181D01*
X7312Y12256D01*
X7312Y12256D01*
X7348Y12343D01*
X7348Y12343D01*
X7353Y12378D01*
X7359Y12421D01*
X7736Y12876D01*
X8264D01*
X8800Y12876D01*
X8800Y12876D01*
X8893Y12888D01*
X8893D01*
X8893Y12888D01*
X8980Y12924D01*
X8980D01*
X8981Y12925D01*
X9055Y12981D01*
X9055Y12982D01*
X9055Y12982D01*
X9689Y13353D01*
X9796Y13380D01*
X9880Y13387D01*
Y14000D01*
Y14579D01*
X9823Y14556D01*
X9823D01*
X9823Y14556D01*
X9599Y14500D01*
X9401D01*
X9177Y14556D01*
X9120Y14579D01*
Y14000D01*
X8880D01*
Y14585D01*
X8637Y14531D01*
X8227Y14643D01*
X8227Y14643D01*
X8117Y14688D01*
X8000Y14704D01*
X7883Y14688D01*
X7883D01*
X7773Y14643D01*
X7773Y14643D01*
X7363Y14531D01*
X7120Y14585D01*
Y14000D01*
X6880D01*
Y14608D01*
X6667Y14617D01*
X6117Y14688D01*
X6000Y14704D01*
X5983Y14702D01*
X5640Y14694D01*
X5200Y14688D01*
X5200Y14688D01*
X5178Y14688D01*
X5178D01*
X5000Y14704D01*
X5000Y14704D01*
X4883Y14688D01*
X4883Y14688D01*
X4773Y14643D01*
X4010Y14703D01*
X4000Y14704D01*
X3883Y14688D01*
X3883D01*
X3773Y14643D01*
X3773D01*
X3773Y14643D01*
X3363Y14531D01*
X3120Y14585D01*
Y14000D01*
X2880D01*
Y14579D01*
X2823Y14556D01*
X2750Y14500D01*
X2694Y14427D01*
X2690Y14415D01*
X2450Y14348D01*
X1882Y14365D01*
X1794Y14530D01*
X1675Y14675D01*
X1530Y14794D01*
X1365Y14882D01*
X1186Y14936D01*
X1000Y14955D01*
X814Y14936D01*
X787Y14928D01*
X227Y15195D01*
X79Y15308D01*
X0Y15411D01*
Y21000D01*
X3313D01*
X3527Y20850D01*
D02*
G37*
G36*
X32000Y14933D02*
X31833Y14830D01*
X31302Y14695D01*
X31213Y14685D01*
X31080Y14794D01*
X30915Y14882D01*
X30736Y14936D01*
X30550Y14955D01*
X30364Y14936D01*
X30185Y14882D01*
X30020Y14794D01*
X29875Y14675D01*
X29756Y14530D01*
X29668Y14365D01*
X29614Y14186D01*
X29595Y14000D01*
X29614Y13814D01*
X29668Y13635D01*
X29756Y13470D01*
X29875Y13325D01*
X30020Y13206D01*
X30185Y13118D01*
X30364Y13064D01*
X30550Y13045D01*
X30736Y13064D01*
X30915Y13118D01*
X31080Y13206D01*
X31213Y13315D01*
X31302Y13305D01*
X31833Y13170D01*
X32000Y13067D01*
Y2733D01*
X31833Y2630D01*
X31302Y2495D01*
X31213Y2485D01*
X31080Y2594D01*
X30915Y2682D01*
X30736Y2736D01*
X30550Y2755D01*
X30364Y2736D01*
X30185Y2682D01*
X30020Y2594D01*
X29875Y2475D01*
X29756Y2330D01*
X29668Y2165D01*
X29614Y1986D01*
X29595Y1800D01*
X29614Y1614D01*
X29668Y1435D01*
X29756Y1270D01*
X29875Y1125D01*
X30020Y1006D01*
X30185Y918D01*
X30364Y864D01*
X30550Y845D01*
X30736Y864D01*
X30915Y918D01*
X31080Y1006D01*
X31213Y1115D01*
X31302Y1105D01*
X31833Y970D01*
X32000Y867D01*
Y0D01*
X24911D01*
X24808Y79D01*
X24694Y227D01*
X24428Y787D01*
X24436Y814D01*
X24455Y1000D01*
X24436Y1186D01*
X24382Y1365D01*
X24294Y1530D01*
X24175Y1675D01*
X24030Y1794D01*
X23865Y1882D01*
X23686Y1936D01*
X23500Y1955D01*
X23314Y1936D01*
X23135Y1882D01*
X22895Y1793D01*
X22492Y1792D01*
X22377Y1880D01*
X22244Y1936D01*
X22244Y1936D01*
X22100Y1955D01*
X22100Y1955D01*
X21956Y1936D01*
X21823Y1880D01*
X21708Y1792D01*
X21492D01*
X21377Y1880D01*
X21244Y1936D01*
X21244Y1936D01*
X21100Y1955D01*
X20956Y1936D01*
X20956Y1936D01*
X20823Y1880D01*
X20708Y1792D01*
X20492D01*
X20377Y1880D01*
X20377D01*
X20244Y1936D01*
X20100Y1955D01*
X20100Y1955D01*
X19956Y1936D01*
X19823Y1880D01*
X19823D01*
X19823Y1880D01*
X19708Y1792D01*
X19331Y1793D01*
X19220Y1837D01*
Y1000D01*
X18980D01*
Y1837D01*
X18869Y1793D01*
X18492Y1792D01*
X18377Y1880D01*
X18377Y1880D01*
X18377D01*
X18244Y1936D01*
X18100Y1955D01*
X18100Y1955D01*
X17956Y1936D01*
X17823Y1880D01*
X17823D01*
X17708Y1792D01*
X17492D01*
X17377Y1880D01*
X17244Y1936D01*
X17244Y1936D01*
X17100Y1955D01*
X16956Y1936D01*
X16956Y1936D01*
X16823Y1880D01*
X16708Y1792D01*
X16492D01*
X16377Y1880D01*
X16244Y1936D01*
X16244Y1936D01*
X16100Y1955D01*
X15956Y1936D01*
X15956Y1936D01*
X15823Y1880D01*
X15708Y1792D01*
X15492D01*
X15377Y1880D01*
X15244Y1936D01*
X15244Y1936D01*
X15100Y1955D01*
X14956Y1936D01*
X14956Y1936D01*
X14823Y1880D01*
X14708Y1792D01*
X14492D01*
X14377Y1880D01*
X14244Y1936D01*
X14244Y1936D01*
X14100Y1955D01*
X13956Y1936D01*
X13956Y1936D01*
X13823Y1880D01*
X13708Y1792D01*
X13492D01*
X13377Y1880D01*
X13244Y1936D01*
X13100Y1955D01*
X12956Y1936D01*
X12956Y1936D01*
X12823Y1880D01*
X12763Y1835D01*
X12573Y1787D01*
X12027D01*
X11837Y1835D01*
X11777Y1880D01*
X11644Y1936D01*
X11644Y1936D01*
X11500Y1955D01*
X11356Y1936D01*
X11223Y1880D01*
X11108Y1792D01*
X10892D01*
X10777Y1880D01*
X10644Y1936D01*
X10644Y1936D01*
X10500Y1955D01*
X10356Y1936D01*
X10356Y1936D01*
X10223Y1880D01*
X9612Y2068D01*
X9310Y2796D01*
X12710Y6196D01*
X13091Y6578D01*
X13091Y6578D01*
X13255Y6741D01*
X13312Y6816D01*
X13348Y6903D01*
X13361Y6996D01*
X13361Y7245D01*
X13361Y7245D01*
X13361Y7767D01*
Y12714D01*
X13417Y12803D01*
X13478Y12869D01*
X14000Y13296D01*
X14000Y13296D01*
X14046Y13302D01*
X14176Y13312D01*
X14500Y13314D01*
X14824Y13312D01*
X14954Y13302D01*
X15000Y13296D01*
X15046Y13302D01*
X15176Y13312D01*
X15500Y13314D01*
X15824Y13312D01*
X15954Y13302D01*
X16000Y13296D01*
X16046Y13302D01*
X16176Y13312D01*
X16500Y13314D01*
X16824Y13312D01*
X16954Y13302D01*
X17000Y13296D01*
X17046Y13302D01*
X17176Y13312D01*
X17500Y13314D01*
X17824Y13312D01*
X17954Y13302D01*
X18000Y13296D01*
X18000Y13296D01*
X18117Y13312D01*
X18117Y13312D01*
X18117Y13312D01*
X18227Y13357D01*
X18227D01*
X18227Y13357D01*
X18321Y13429D01*
X18321D01*
X18321Y13429D01*
X18373Y13496D01*
X18393Y13523D01*
X18393Y13523D01*
X18393Y13523D01*
X18438Y13633D01*
X18438Y13633D01*
X18454Y13750D01*
X18454Y13750D01*
X18454Y14250D01*
X18454Y14250D01*
X18454Y14250D01*
X18438Y14367D01*
X18393Y14477D01*
X18359Y14521D01*
X18428Y14908D01*
X18505Y15153D01*
X18590Y15308D01*
X19669D01*
X19762Y15321D01*
X19849Y15357D01*
X19853Y15360D01*
X19870Y15369D01*
X20608Y15608D01*
X20723Y15520D01*
X20856Y15464D01*
X20856Y15464D01*
X21000Y15445D01*
X21144Y15464D01*
X21144Y15464D01*
X21277Y15520D01*
X21392Y15608D01*
X21608D01*
X21723Y15520D01*
X21723D01*
X21856Y15464D01*
X21856Y15464D01*
X22000Y15445D01*
X22000Y15445D01*
X22144Y15464D01*
X22144Y15464D01*
X22144Y15464D01*
X22277Y15520D01*
X22392Y15608D01*
X22392D01*
X22480Y15723D01*
X22480Y15723D01*
X22536Y15856D01*
X22536Y15856D01*
X22555Y16000D01*
X23318Y16236D01*
X26593D01*
X26782Y16114D01*
X26803Y16092D01*
X27201Y15554D01*
X27196Y15500D01*
X27212Y15343D01*
X27257Y15192D01*
X27332Y15053D01*
X27432Y14932D01*
X27553Y14832D01*
X27692Y14757D01*
X27843Y14712D01*
X28000Y14696D01*
X28157Y14712D01*
X28308Y14757D01*
X28447Y14832D01*
X28568Y14932D01*
X28668Y15053D01*
X28743Y15192D01*
X28788Y15343D01*
X28804Y15500D01*
X28788Y15657D01*
X28743Y15808D01*
X28668Y15947D01*
X28614Y16013D01*
X28700Y16800D01*
X28700Y16800D01*
Y17380D01*
X28000D01*
Y17500D01*
X27880D01*
Y18200D01*
X27300D01*
Y17861D01*
X25080D01*
X24343Y18136D01*
X24327Y18260D01*
X24327Y18260D01*
X24279Y18376D01*
X24279D01*
X24203Y18475D01*
X24203Y18475D01*
X24104Y18552D01*
X24104Y18552D01*
X24104D01*
X23988Y18600D01*
X23988Y18600D01*
X23988Y18600D01*
X23864Y18616D01*
X23864Y18616D01*
X23812Y18609D01*
X23533Y18840D01*
X23360Y19231D01*
X23750Y19567D01*
X23750Y19567D01*
X23871Y19517D01*
X24000Y19500D01*
X24129Y19517D01*
X24250Y19567D01*
X24250Y19567D01*
X24388Y19647D01*
X24612D01*
X24750Y19567D01*
X24750Y19567D01*
X24871Y19517D01*
X25000Y19500D01*
X25056Y19508D01*
X25129Y19517D01*
X25129Y19517D01*
X25182Y19539D01*
X25250Y19567D01*
X25250D01*
X25250Y19567D01*
X25388Y19647D01*
X25612D01*
X25750Y19567D01*
X25750Y19567D01*
X25750Y19567D01*
X25871Y19517D01*
X25871Y19517D01*
X26000Y19500D01*
X26129Y19517D01*
X26129Y19517D01*
X26182Y19539D01*
D01*
X26250Y19567D01*
X26250Y19567D01*
X26295Y19602D01*
X26353Y19647D01*
X26353Y19647D01*
X26388Y19692D01*
X26388D01*
X26433Y19750D01*
X26433Y19750D01*
X26483Y19871D01*
X26483Y19871D01*
X26500Y20000D01*
X26500Y20000D01*
X26492Y20056D01*
X26492Y20056D01*
X26483Y20129D01*
X26483Y20129D01*
X26461Y20182D01*
Y20182D01*
X26433Y20250D01*
X26577Y20675D01*
X26804Y21000D01*
X32000D01*
Y14933D01*
D02*
G37*
%LPC*%
G36*
X11880Y14579D02*
X11823Y14556D01*
X11599Y14500D01*
X11401D01*
X11177Y14556D01*
X11177Y14556D01*
X11177D01*
X11120Y14579D01*
Y14000D01*
Y13421D01*
X11177Y13444D01*
X11177D01*
X11177Y13444D01*
X11401Y13500D01*
X11599D01*
X11823Y13444D01*
X11880Y13421D01*
Y14000D01*
Y14579D01*
D02*
G37*
G36*
X28700Y18200D02*
X28120D01*
Y17620D01*
X28700D01*
Y18200D01*
D02*
G37*
G36*
X10880Y14579D02*
X10823Y14556D01*
X10823D01*
X10823Y14556D01*
X10599Y14500D01*
X10401D01*
X10177Y14556D01*
X10177Y14556D01*
X10177D01*
X10120Y14579D01*
Y14000D01*
Y13421D01*
X10177Y13444D01*
X10177D01*
X10177Y13444D01*
X10401Y13500D01*
X10599D01*
X10823Y13444D01*
X10823Y13444D01*
X10823D01*
X10880Y13421D01*
Y14000D01*
Y14579D01*
D02*
G37*
%LPD*%
G54D10*
X3487Y13613D02*
X3620Y13746D01*
X3487Y13548D02*
Y13613D01*
X3202Y13263D02*
X3487Y13548D01*
X3137Y13263D02*
X3202D01*
X3000Y13126D02*
X3137Y13263D01*
X3000Y12947D02*
Y13126D01*
Y12947D02*
X3747Y12200D01*
X17300Y16300D02*
Y17000D01*
X17186Y16186D02*
X17300Y16300D01*
X14680Y16186D02*
X17186D01*
X23500Y17500D02*
X28000D01*
X27096Y16596D02*
X28000Y15693D01*
Y15500D02*
Y15693D01*
X15000Y17000D02*
X16500D01*
X5000Y13000D02*
Y14000D01*
X4000Y13000D02*
X5000D01*
X9000Y14000D02*
X10000D01*
X11000D01*
X12000D01*
X12500Y20000D02*
X13500D01*
X4000Y13746D02*
Y14000D01*
X13500Y19236D02*
Y20000D01*
Y19236D02*
X13730Y19006D01*
X20006D01*
X21000Y20000D01*
X2860Y11836D02*
X3224Y12200D01*
X2860Y9640D02*
Y11836D01*
Y9640D02*
X3500Y9000D01*
Y11000D02*
X4196Y11696D01*
X4680D01*
X4820Y11836D01*
Y12200D02*
X5000D01*
X6764D01*
X7000Y12436D01*
X9000Y13436D02*
Y14000D01*
X8800Y13236D02*
X9000Y13436D01*
X7200Y13236D02*
X8800D01*
X7000Y13436D02*
X7200Y13236D01*
X8500Y18636D02*
Y20000D01*
Y18636D02*
X8605Y18531D01*
X21531D01*
X23000Y20000D01*
X19669Y15669D02*
X20000Y16000D01*
X13830Y15669D02*
X19669D01*
X13100Y16399D02*
X13830Y15669D01*
X13100Y16399D02*
Y17136D01*
X5500Y1000D02*
Y1836D01*
X8000Y4336D01*
X21596Y16596D02*
X27096D01*
X21000Y16000D02*
X21596Y16596D01*
X8500Y1000D02*
Y2496D01*
X13000Y6996D01*
Y14000D01*
X7180Y18136D02*
X23864D01*
X6500Y18816D02*
X7180Y18136D01*
X6500Y18816D02*
Y20000D01*
X5500Y16000D02*
X7146Y17646D01*
X14500D01*
X25464Y20536D02*
X26000Y20000D01*
X20010Y20536D02*
X25464D01*
X19170Y19696D02*
X20010Y20536D01*
X4820Y11836D02*
Y12200D01*
X7000Y12436D02*
Y13436D01*
Y14000D01*
X3224Y12200D02*
X3747D01*
X4000D01*
X3620Y13746D02*
X4000D01*
G54D11*
X4500Y9000D02*
D03*
X3500Y11000D02*
D03*
X4500D02*
D03*
X3500Y10000D02*
D03*
X4500D02*
D03*
X3500Y9000D02*
D03*
G54D12*
X23500Y1000D02*
D03*
X3500Y7000D02*
D03*
Y18000D02*
D03*
X30550Y1800D02*
D03*
Y14000D02*
D03*
X1000Y1800D02*
D03*
Y14000D02*
D03*
G54D13*
X16500Y20000D02*
D03*
X15500D02*
D03*
X14500D02*
D03*
X13500D02*
D03*
X12500D02*
D03*
X11500D02*
D03*
X9500D02*
D03*
X8500D02*
D03*
X7500D02*
D03*
X6500D02*
D03*
X5500D02*
D03*
X4500D02*
D03*
Y1000D02*
D03*
X5500D02*
D03*
X6500D02*
D03*
X7500D02*
D03*
X8500D02*
D03*
X9500D02*
D03*
X10500D02*
D03*
X11500D02*
D03*
X13100D02*
D03*
X14100D02*
D03*
X15100D02*
D03*
X16100D02*
D03*
X17100D02*
D03*
X18100D02*
D03*
X19100D02*
D03*
X20100D02*
D03*
X17500Y20000D02*
D03*
X18500D02*
D03*
X21100Y1000D02*
D03*
X22100D02*
D03*
G54D14*
X28000Y15500D02*
D03*
G54D15*
Y17500D02*
D03*
G54D16*
X22000Y16000D02*
D03*
X20000D02*
D03*
X21000D02*
D03*
G54D17*
X5500D02*
D03*
X7500Y17000D02*
D03*
X22000Y20000D02*
D03*
X23000D02*
D03*
X24000D02*
D03*
X25000D02*
D03*
X26000D02*
D03*
G54D18*
X5500Y18000D02*
D03*
X21000Y20000D02*
D03*
G54D19*
X3000Y14000D02*
D03*
X4000D02*
D03*
X5000D02*
D03*
X6000D02*
D03*
X7000D02*
D03*
X8000D02*
D03*
X9000D02*
D03*
X10000D02*
D03*
X11000D02*
D03*
X12000D02*
D03*
X13000D02*
D03*
X14000D02*
D03*
X15000D02*
D03*
X16000D02*
D03*
X17000D02*
D03*
X18000D02*
D03*
G54D20*
X14000Y17000D02*
D03*
X15000D02*
D03*
G54D21*
X23500Y17500D02*
D03*
X23864Y18136D02*
D03*
G54D22*
X13100Y17136D02*
D03*
X8000Y4336D02*
D03*
X14680Y16186D02*
D03*
X14500Y17646D02*
D03*
X19170Y19696D02*
D03*
G54D23*
X17300Y17000D02*
D03*
X16500D02*
D03*
G54D24*
X5000Y12200D02*
D03*
Y13000D02*
D03*
X4000Y12200D02*
D03*
Y13000D02*
D03*
M02*
