G04 Layer_Color=32896*
%FSLAX24Y24*%
%MOIN*%
G70*
G01*
G75*
%ADD25C,0.0100*%
%ADD44C,0.0200*%
%ADD45C,0.0020*%
G54D25*
X3500Y13000D02*
X2900D01*
Y12700D01*
X3000Y12600D01*
X3200D01*
X3300Y12700D01*
Y13000D01*
Y12800D02*
X3500Y12600D01*
Y12000D02*
Y12400D01*
X3100Y12000D01*
X3000D01*
X2900Y12100D01*
Y12300D01*
X3000Y12400D01*
X5500Y12000D02*
X6100D01*
Y12300D01*
X6000Y12400D01*
X5800D01*
X5700Y12300D01*
Y12000D01*
Y12200D02*
X5500Y12400D01*
X6000Y12600D02*
X6100Y12700D01*
Y12900D01*
X6000Y13000D01*
X5900D01*
X5800Y12900D01*
Y12800D01*
Y12900D01*
X5700Y13000D01*
X5600D01*
X5500Y12900D01*
Y12700D01*
X5600Y12600D01*
X16345Y16395D02*
Y15795D01*
X16645D01*
X16745Y15895D01*
Y16095D01*
X16645Y16195D01*
X16345D01*
X16545D02*
X16745Y16395D01*
X17245D02*
Y15795D01*
X16945Y16095D01*
X17345D01*
G54D44*
X3500Y21000D02*
X29500D01*
X3500Y20000D02*
Y21000D01*
X2500Y19000D02*
X3500Y20000D01*
X2500Y6100D02*
Y19000D01*
Y6100D02*
X3500Y5100D01*
Y600D02*
Y5100D01*
Y600D02*
X4100Y0D01*
X18500D01*
X21500D01*
X29500D01*
Y21000D01*
Y3700D02*
X32000D01*
Y8300D01*
X29500D02*
X32000D01*
G54D45*
X16250Y17300D02*
X16700D01*
X17100Y16700D02*
X17550D01*
Y17300D01*
X17100D02*
X17550D01*
X16250Y16700D02*
Y17300D01*
Y16700D02*
X16700D01*
X5300Y12800D02*
Y13250D01*
X4700Y11950D02*
Y12400D01*
Y11950D02*
X5300D01*
Y12400D01*
X4700Y13250D02*
X5300D01*
X4700Y12800D02*
Y13250D01*
X4300Y12800D02*
Y13250D01*
X3700Y11950D02*
Y12400D01*
Y11950D02*
X4300D01*
Y12400D01*
X3700Y13250D02*
X4300D01*
X3700Y12800D02*
Y13250D01*
M02*
