G04 Layer_Color=2752767*
%FSLAX24Y24*%
%MOIN*%
G70*
G01*
G75*
%ADD27C,0.0050*%
%ADD50C,0.0067*%
G54D27*
X4300Y8800D02*
Y9200D01*
X4700D01*
Y8800D01*
X4300D01*
X3300Y10800D02*
Y11200D01*
X3700D01*
Y10800D01*
X3300D01*
X4300D02*
Y11200D01*
X4700D01*
Y10800D01*
X4300D01*
X3300Y9800D02*
Y10200D01*
X3700D01*
Y9800D01*
X3300D01*
X4300D02*
Y10200D01*
X4700D01*
Y9800D01*
X4300D01*
X3300Y8800D02*
Y9200D01*
X3700D01*
Y8800D01*
X3300D01*
X16300Y19800D02*
Y20200D01*
X16700D01*
Y19800D01*
X16300D01*
X15300D02*
Y20200D01*
X15700D01*
Y19800D01*
X15300D01*
X14300D02*
Y20200D01*
X14700D01*
Y19800D01*
X14300D01*
X13300D02*
Y20200D01*
X13700D01*
Y19800D01*
X13300D01*
X12300D02*
Y20200D01*
X12700D01*
Y19800D01*
X12300D01*
X11300D02*
Y20200D01*
X11700D01*
Y19800D01*
X11300D01*
X9300D02*
Y20200D01*
X9700D01*
Y19800D01*
X9300D01*
X8300D02*
Y20200D01*
X8700D01*
Y19800D01*
X8300D01*
X7300D02*
Y20200D01*
X7700D01*
Y19800D01*
X7300D01*
X6300D02*
Y20200D01*
X6700D01*
Y19800D01*
X6300D01*
X5300D02*
Y20200D01*
X5700D01*
Y19800D01*
X5300D01*
X4300D02*
Y20200D01*
X4700D01*
Y19800D01*
X4300D01*
Y800D02*
Y1200D01*
X4700D01*
Y800D01*
X4300D01*
X5300D02*
Y1200D01*
X5700D01*
Y800D01*
X5300D01*
X6300D02*
Y1200D01*
X6700D01*
Y800D01*
X6300D01*
X7300D02*
Y1200D01*
X7700D01*
Y800D01*
X7300D01*
X8300D02*
Y1200D01*
X8700D01*
Y800D01*
X8300D01*
X9300D02*
Y1200D01*
X9700D01*
Y800D01*
X9300D01*
X10300D02*
Y1200D01*
X10700D01*
Y800D01*
X10300D01*
X11300D02*
Y1200D01*
X11700D01*
Y800D01*
X11300D01*
X12900D02*
Y1200D01*
X13300D01*
Y800D01*
X12900D01*
X13900D02*
Y1200D01*
X14300D01*
Y800D01*
X13900D01*
X14900D02*
Y1200D01*
X15300D01*
Y800D01*
X14900D01*
X15900D02*
Y1200D01*
X16300D01*
Y800D01*
X15900D01*
X16900D02*
Y1200D01*
X17300D01*
Y800D01*
X16900D01*
X17900D02*
Y1200D01*
X18300D01*
Y800D01*
X17900D01*
X18900D02*
Y1200D01*
X19300D01*
Y800D01*
X18900D01*
X19900D02*
Y1200D01*
X20300D01*
Y800D01*
X19900D01*
X17300Y19800D02*
Y20200D01*
X17700D01*
Y19800D01*
X17300D01*
X18300D02*
Y20200D01*
X18700D01*
Y19800D01*
X18300D01*
X20900Y800D02*
Y1200D01*
X21300D01*
Y800D01*
X20900D01*
X21900D02*
Y1200D01*
X22300D01*
Y800D01*
X21900D01*
X28000Y15300D02*
X27800Y15700D01*
X28200D01*
X28000Y15300D01*
Y17300D02*
X27800Y17700D01*
X28200D01*
X28000Y17300D01*
X22000Y15800D02*
X22100Y15900D01*
X22200D01*
X22100Y16000D01*
X22200Y16100D01*
X22100D01*
X22000Y16200D01*
X21900Y16100D01*
X21800D01*
X21900Y16000D01*
X21800Y15900D01*
X21900D01*
X22000Y15800D01*
X20000D02*
X20100Y15900D01*
X20200D01*
X20100Y16000D01*
X20200Y16100D01*
X20100D01*
X20000Y16200D01*
X19900Y16100D01*
X19800D01*
X19900Y16000D01*
X19800Y15900D01*
X19900D01*
X20000Y15800D01*
X21000D02*
X21100Y15900D01*
X21200D01*
X21100Y16000D01*
X21200Y16100D01*
X21100D01*
X21000Y16200D01*
X20900Y16100D01*
X20800D01*
X20900Y16000D01*
X20800Y15900D01*
X20900D01*
X21000Y15800D01*
X5300D02*
X5400Y16000D01*
X5300Y16200D01*
X5500Y16100D01*
X5700Y16200D01*
X5600Y16000D01*
X5700Y15800D01*
X5500Y15900D01*
X5300Y15800D01*
X7300Y16800D02*
X7400Y17000D01*
X7300Y17200D01*
X7500Y17100D01*
X7700Y17200D01*
X7600Y17000D01*
X7700Y16800D01*
X7500Y16900D01*
X7300Y16800D01*
X5300Y17800D02*
X5400Y18000D01*
X5300Y18200D01*
X5500Y18100D01*
X5700Y18200D01*
X5600Y18000D01*
X5700Y17800D01*
X5500Y17900D01*
X5300Y17800D01*
X30450Y1700D02*
Y1600D01*
X30650D01*
Y1700D01*
X30750D01*
Y1900D01*
X30650D01*
Y2000D01*
X30450D01*
Y1900D01*
X30350D01*
Y1700D01*
X30450D01*
Y13900D02*
Y13800D01*
X30650D01*
Y13900D01*
X30750D01*
Y14100D01*
X30650D01*
Y14200D01*
X30450D01*
Y14100D01*
X30350D01*
Y13900D01*
X30450D01*
X900Y1700D02*
Y1600D01*
X1100D01*
Y1700D01*
X1200D01*
Y1900D01*
X1100D01*
Y2000D01*
X900D01*
Y1900D01*
X800D01*
Y1700D01*
X900D01*
Y13900D02*
Y13800D01*
X1100D01*
Y13900D01*
X1200D01*
Y14100D01*
X1100D01*
Y14200D01*
X900D01*
Y14100D01*
X800D01*
Y13900D01*
X900D01*
X2800Y13800D02*
Y14200D01*
X3200D01*
Y13800D01*
X2800D01*
X3800D02*
Y14200D01*
X4200D01*
Y13800D01*
X3800D01*
X4800D02*
Y14200D01*
X5200D01*
Y13800D01*
X4800D01*
X5800D02*
Y14200D01*
X6200D01*
Y13800D01*
X5800D01*
X6800D02*
Y14200D01*
X7200D01*
Y13800D01*
X6800D01*
X7800D02*
Y14200D01*
X8200D01*
Y13800D01*
X7800D01*
X8800D02*
Y14200D01*
X9200D01*
Y13800D01*
X8800D01*
X9800D02*
Y14200D01*
X10200D01*
Y13800D01*
X9800D01*
X10800D02*
Y14200D01*
X11200D01*
Y13800D01*
X10800D01*
X11800D02*
Y14200D01*
X12200D01*
Y13800D01*
X11800D01*
X12800D02*
Y14200D01*
X13200D01*
Y13800D01*
X12800D01*
X13800D02*
Y14200D01*
X14200D01*
Y13800D01*
X13800D01*
X14800D02*
Y14200D01*
X15200D01*
Y13800D01*
X14800D01*
X15800D02*
Y14200D01*
X16200D01*
Y13800D01*
X15800D01*
X16800D02*
Y14200D01*
X17200D01*
Y13800D01*
X16800D01*
X17800D02*
Y14200D01*
X18200D01*
Y13800D01*
X17800D01*
X13800Y16800D02*
X13900D01*
X14000Y16900D01*
X14100Y16800D01*
X14200D01*
Y16900D01*
X14100Y17000D01*
X14200Y17100D01*
Y17200D01*
X14100D01*
X14000Y17100D01*
X13900Y17200D01*
X13800D01*
Y17100D01*
X13900Y17000D01*
X13800Y16900D01*
Y16800D01*
X14800D02*
X14900D01*
X15000Y16900D01*
X15100Y16800D01*
X15200D01*
Y16900D01*
X15100Y17000D01*
X15200Y17100D01*
Y17200D01*
X15100D01*
X15000Y17100D01*
X14900Y17200D01*
X14800D01*
Y17100D01*
X14900Y17000D01*
X14800Y16900D01*
Y16800D01*
X20800Y19800D02*
X20900Y20000D01*
X20800Y20200D01*
X21000Y20100D01*
X21200Y20200D01*
X21100Y20000D01*
X21200Y19800D01*
X21000Y19900D01*
X20800Y19800D01*
X21800D02*
X21900Y20000D01*
X21800Y20200D01*
X22000Y20100D01*
X22200Y20200D01*
X22100Y20000D01*
X22200Y19800D01*
X22000Y19900D01*
X21800Y19800D01*
X22800D02*
X22900Y20000D01*
X22800Y20200D01*
X23000Y20100D01*
X23200Y20200D01*
X23100Y20000D01*
X23200Y19800D01*
X23000Y19900D01*
X22800Y19800D01*
X23800D02*
X23900Y20000D01*
X23800Y20200D01*
X24000Y20100D01*
X24200Y20200D01*
X24100Y20000D01*
X24200Y19800D01*
X24000Y19900D01*
X23800Y19800D01*
X24800D02*
X24900Y20000D01*
X24800Y20200D01*
X25000Y20100D01*
X25200Y20200D01*
X25100Y20000D01*
X25200Y19800D01*
X25000Y19900D01*
X24800Y19800D01*
X25800D02*
X25900Y20000D01*
X25800Y20200D01*
X26000Y20100D01*
X26200Y20200D01*
X26100Y20000D01*
X26200Y19800D01*
X26000Y19900D01*
X25800Y19800D01*
X23300Y17500D02*
X23500Y17700D01*
X23700Y17500D01*
X23500Y17300D01*
X23300Y17500D01*
X23664Y18136D02*
X23864Y18336D01*
X24064Y18136D01*
X23864Y17936D01*
X23664Y18136D01*
X12900Y16936D02*
Y17336D01*
X13300D01*
Y16936D01*
X12900D01*
X12980Y17016D02*
Y17256D01*
X13220D01*
Y17016D01*
X12980D01*
X7800Y4136D02*
Y4536D01*
X8200D01*
Y4136D01*
X7800D01*
X7880Y4216D02*
Y4456D01*
X8120D01*
Y4216D01*
X7880D01*
X14480Y15986D02*
Y16386D01*
X14880D01*
Y15986D01*
X14480D01*
X14560Y16066D02*
Y16306D01*
X14800D01*
Y16066D01*
X14560D01*
X14300Y17446D02*
Y17846D01*
X14700D01*
Y17446D01*
X14300D01*
X14380Y17526D02*
Y17766D01*
X14620D01*
Y17526D01*
X14380D01*
X18970Y19496D02*
Y19896D01*
X19370D01*
Y19496D01*
X18970D01*
X19050Y19576D02*
Y19816D01*
X19290D01*
Y19576D01*
X19050D01*
G54D50*
X23700Y1000D02*
G03*
X23700Y1000I-200J0D01*
G01*
X3700Y7000D02*
G03*
X3700Y7000I-200J0D01*
G01*
Y18000D02*
G03*
X3700Y18000I-200J0D01*
G01*
M02*
