G04 Layer_Color=32896*
%FSLAX24Y24*%
%MOIN*%
G70*
G01*
G75*
%ADD23C,0.0100*%
%ADD34C,0.0020*%
%ADD35C,0.0197*%
G54D23*
X2655Y6105D02*
Y6705D01*
X2355D01*
X2255Y6605D01*
Y6405D01*
X2355Y6305D01*
X2655D01*
X2455D02*
X2255Y6105D01*
X2055D02*
X1855D01*
X1955D01*
Y6705D01*
X2055Y6605D01*
X-6495Y8995D02*
X-5895D01*
X-6195D01*
X-6295Y8895D01*
Y8695D01*
X-6195Y8595D01*
X-5895D01*
Y8095D02*
Y8295D01*
X-5995Y8395D01*
X-6195D01*
X-6295Y8295D01*
Y8095D01*
X-6195Y7995D01*
X-6095D01*
Y8395D01*
X-6295Y7695D02*
Y7495D01*
X-6195Y7396D01*
X-5895D01*
Y7695D01*
X-5995Y7795D01*
X-6095Y7695D01*
Y7396D01*
X-6295Y7196D02*
X-5895D01*
X-6095D01*
X-6195Y7096D01*
X-6295Y6996D01*
Y6896D01*
X-6395Y6496D02*
X-6295D01*
Y6596D01*
Y6396D01*
Y6496D01*
X-5995D01*
X-5895Y6396D01*
G54D34*
X2300Y5200D02*
X2750D01*
X1450Y5800D02*
X1900D01*
X1450Y5200D02*
Y5800D01*
Y5200D02*
X1900D01*
X2750D02*
Y5800D01*
X2300D02*
X2750D01*
G54D35*
X5500Y-1000D02*
Y8000D01*
Y9000D01*
X-5500Y0D02*
Y9000D01*
Y0D02*
X-4500Y-1000D01*
X5500D01*
X-5500Y9000D02*
X5500D01*
M02*
