M48
;Layer_Color=9474304
;FILE_FORMAT=2:4
INCH,TZ
;TYPE=PLATED
T1F00S00C0.0315
T2F00S00C0.0320
T3F00S00C0.0354
T4F00S00C0.0394
%
T01
X3000Y6500
X-500Y7000
X-1500Y7000
Y1000
T02
X-500Y0
X0
X500
T03
X2500Y8000
X1500
X500
X-500
X-1500
X-2500
T04
X4500Y1000
Y2000
Y3000
Y4000
Y5000
Y6000
Y7000
Y8000
X500Y5500
X-500
X-4500Y5000
Y4000
Y3000
Y2000
Y1000
Y6000
Y7000
Y8000
M30
