G04 Layer_Physical_Order=2*
G04 Layer_Color=16711680*
%FSLAX24Y24*%
%MOIN*%
G70*
G01*
G75*
%ADD12C,0.0315*%
%ADD13C,0.0630*%
%ADD14R,0.0591X0.0591*%
%ADD15C,0.0591*%
%ADD16O,0.0360X0.0700*%
%ADD17R,0.0630X0.0630*%
%ADD18C,0.0551*%
%ADD19R,0.0400X0.0500*%
G36*
X6000Y-1500D02*
X-4500D01*
X-6000Y0D01*
Y9500D01*
X6000D01*
Y-1500D01*
D02*
G37*
%LPC*%
G36*
X4380Y880D02*
X4085D01*
Y585D01*
X4380D01*
Y880D01*
D02*
G37*
G36*
X4915D02*
X4620D01*
Y585D01*
X4915D01*
Y880D01*
D02*
G37*
G36*
X-4085D02*
X-4380D01*
Y585D01*
X-4085D01*
Y880D01*
D02*
G37*
G36*
X782Y-120D02*
X620D01*
Y-423D01*
X641Y-415D01*
Y-415D01*
X686Y-380D01*
X700Y-370D01*
X700Y-370D01*
X743Y-313D01*
Y-313D01*
X745Y-311D01*
Y-311D01*
X773Y-243D01*
X773Y-243D01*
X782Y-170D01*
X782Y-170D01*
Y-120D01*
D02*
G37*
G36*
X-4620Y880D02*
X-4915D01*
Y585D01*
X-4620D01*
Y880D01*
D02*
G37*
G36*
X2800Y5380D02*
X2620D01*
Y5124D01*
X2800Y5150D01*
Y5380D01*
D02*
G37*
G36*
X2895Y7880D02*
X2620D01*
Y7605D01*
X2895D01*
Y7880D01*
D02*
G37*
G36*
X2620Y8395D02*
Y8120D01*
X2895D01*
Y8395D01*
X2620D01*
D02*
G37*
G36*
X-4500Y8519D02*
X-4509Y8518D01*
X-4634Y8502D01*
X-4644Y8498D01*
X-4739Y8458D01*
X-4760Y8450D01*
X-4849Y8381D01*
X-4849D01*
Y8381D01*
X-4867Y8367D01*
X-4867D01*
X-4936Y8278D01*
D01*
X-4950Y8260D01*
X-4950Y8260D01*
X-5002Y8134D01*
X-5002Y8134D01*
X-5005Y8112D01*
X-5019Y8000D01*
X-5019Y8000D01*
X-5016Y7978D01*
X-5016Y7978D01*
X-5002Y7866D01*
X-5002Y7866D01*
X-4950Y7740D01*
X-5002Y7134D01*
X-5002D01*
X-5002Y7134D01*
X-5019Y7000D01*
X-5002Y6866D01*
X-4950Y6740D01*
X-4950Y6740D01*
X-5002Y6134D01*
X-5002D01*
X-5002Y6134D01*
X-5019Y6000D01*
X-5002Y5866D01*
X-4950Y5740D01*
X-4950Y5740D01*
X-5002Y5134D01*
X-5002D01*
X-5002Y5134D01*
X-5019Y5000D01*
X-5002Y4866D01*
X-4950Y4740D01*
X-4950Y4740D01*
X-5002Y4134D01*
X-5002D01*
X-5002Y4134D01*
X-5019Y4000D01*
X-5002Y3866D01*
X-4950Y3740D01*
X-4950Y3740D01*
X-5002Y3134D01*
X-5002Y3134D01*
X-5002Y3134D01*
X-5019Y3000D01*
X-5002Y2866D01*
X-4950Y2740D01*
X-4950Y2740D01*
X-4950Y2740D01*
X-4867Y2614D01*
Y2386D01*
X-4950Y2260D01*
X-4950Y2260D01*
X-5002Y2134D01*
X-5019Y2000D01*
X-5019Y2000D01*
X-5002Y1866D01*
X-4921Y1147D01*
X-4920Y1120D01*
X-4080D01*
X-4079Y1147D01*
X-3998Y1866D01*
X-3981Y2000D01*
X-3981Y2000D01*
X-3996Y2114D01*
X-3998Y2134D01*
X-4050Y2260D01*
X-3998Y2866D01*
X-3998D01*
X-3998Y2866D01*
X-3981Y3000D01*
X-3998Y3134D01*
X-4050Y3260D01*
X-4050Y3260D01*
X-3998Y3866D01*
X-3998D01*
X-3998Y3866D01*
X-3981Y4000D01*
X-3998Y4134D01*
X-4050Y4260D01*
X-4050Y4260D01*
X-3998Y4866D01*
X-3998D01*
X-3998Y4866D01*
X-3981Y5000D01*
X-3998Y5134D01*
X-4050Y5260D01*
X-4050Y5260D01*
X-3998Y5866D01*
X-3998D01*
X-3998Y5866D01*
X-3981Y6000D01*
X-3998Y6134D01*
X-4050Y6260D01*
X-4050Y6260D01*
X-3998Y6866D01*
X-3998Y6866D01*
X-3998Y6866D01*
X-3981Y7000D01*
X-3998Y7134D01*
X-4050Y7260D01*
X-4050Y7260D01*
X-4050Y7260D01*
X-4133Y7386D01*
Y7614D01*
X-4050Y7740D01*
X-4050Y7740D01*
Y7740D01*
X-4007Y7845D01*
Y7845D01*
X-3998Y7866D01*
X-3998Y7866D01*
X-3981Y8000D01*
X-3981Y8000D01*
X-3998Y8134D01*
X-3998Y8134D01*
X-4042Y8239D01*
X-4042Y8239D01*
X-4050Y8260D01*
X-4050Y8260D01*
X-4119Y8349D01*
X-4119Y8349D01*
X-4133Y8367D01*
X-4218Y8432D01*
X-4240Y8450D01*
X-4366Y8502D01*
X-4388Y8505D01*
X-4388Y8505D01*
X-4500Y8519D01*
D02*
G37*
G36*
X4500D02*
X4491Y8518D01*
X4366Y8502D01*
X4356Y8498D01*
X4261Y8458D01*
X4240Y8450D01*
X4151Y8381D01*
X4151D01*
Y8381D01*
X4133Y8367D01*
X4133D01*
X4064Y8278D01*
D01*
X4050Y8260D01*
X4050Y8260D01*
X3998Y8134D01*
X3998Y8134D01*
X3995Y8112D01*
X3981Y8000D01*
X3981Y8000D01*
X3984Y7978D01*
X3984Y7978D01*
X3998Y7866D01*
X3998Y7866D01*
X4050Y7740D01*
X3998Y7134D01*
X3998D01*
X3998Y7134D01*
X3981Y7000D01*
X3998Y6866D01*
X4050Y6740D01*
X4050Y6740D01*
X3998Y6134D01*
X3998D01*
X3998Y6134D01*
X3981Y6000D01*
X3998Y5866D01*
X4050Y5740D01*
X4050Y5740D01*
X3998Y5134D01*
X3998D01*
X3998Y5134D01*
X3981Y5000D01*
X3998Y4866D01*
X4050Y4740D01*
X4050Y4740D01*
X3998Y4134D01*
X3998D01*
X3998Y4134D01*
X3981Y4000D01*
X3998Y3866D01*
X4050Y3740D01*
X4050Y3740D01*
X3998Y3134D01*
X3998Y3134D01*
X3998Y3134D01*
X3981Y3000D01*
X3998Y2866D01*
X4050Y2740D01*
X4050Y2740D01*
X4050Y2740D01*
X4133Y2614D01*
Y2386D01*
X4050Y2260D01*
X4050Y2260D01*
X3998Y2134D01*
X3981Y2000D01*
X3981Y2000D01*
X3998Y1866D01*
X4079Y1147D01*
X4080Y1120D01*
X4920D01*
X4921Y1147D01*
X5002Y1866D01*
X5019Y2000D01*
X5019Y2000D01*
X5004Y2114D01*
X5002Y2134D01*
X4950Y2260D01*
X5002Y2866D01*
X5002D01*
X5002Y2866D01*
X5019Y3000D01*
X5002Y3134D01*
X4950Y3260D01*
X4950Y3260D01*
X5002Y3866D01*
X5002D01*
X5002Y3866D01*
X5019Y4000D01*
X5002Y4134D01*
X4950Y4260D01*
X4950Y4260D01*
X5002Y4866D01*
X5002D01*
X5002Y4866D01*
X5019Y5000D01*
X5002Y5134D01*
X4950Y5260D01*
X4950Y5260D01*
X5002Y5866D01*
X5002D01*
X5002Y5866D01*
X5019Y6000D01*
X5002Y6134D01*
X4950Y6260D01*
X4950Y6260D01*
X5002Y6866D01*
X5002Y6866D01*
X5002Y6866D01*
X5019Y7000D01*
X5002Y7134D01*
X4950Y7260D01*
X4950Y7260D01*
X4950Y7260D01*
X4867Y7386D01*
Y7614D01*
X4950Y7740D01*
X4950Y7740D01*
Y7740D01*
X4993Y7845D01*
Y7845D01*
X5002Y7866D01*
X5002Y7866D01*
X5019Y8000D01*
X5019Y8000D01*
X5002Y8134D01*
X5002Y8134D01*
X4958Y8239D01*
X4958Y8239D01*
X4950Y8260D01*
X4950Y8260D01*
X4881Y8349D01*
X4881Y8349D01*
X4867Y8367D01*
X4782Y8432D01*
X4760Y8450D01*
X4634Y8502D01*
X4612Y8505D01*
X4612Y8505D01*
X4500Y8519D01*
D02*
G37*
G36*
X-2500Y8500D02*
X-2629Y8483D01*
X-2629Y8483D01*
X-2750Y8433D01*
X-2853Y8353D01*
X-2853Y8353D01*
X-2933Y8250D01*
X-2933Y8250D01*
X-2933Y8250D01*
X-2983Y8129D01*
X-2983Y8129D01*
X-2983Y8129D01*
X-2990Y8073D01*
X-3000Y8000D01*
X-3000Y8000D01*
X-2983Y7871D01*
X-2983Y7871D01*
X-2961Y7818D01*
Y7818D01*
X-2933Y7750D01*
X-2933Y7750D01*
X-2861Y7656D01*
Y7271D01*
X-2861Y6684D01*
X-2861Y6684D01*
X-2861Y6500D01*
X-2848Y6407D01*
X-2812Y6320D01*
X-2755Y6245D01*
X-2621Y6112D01*
X-2621Y6111D01*
X-2210Y5700D01*
X-1861Y5351D01*
X-1861Y5284D01*
Y1311D01*
X-1915Y1240D01*
X-1915Y1240D01*
X-1963Y1124D01*
X-1963Y1124D01*
X-1980Y1000D01*
X-1980Y1000D01*
X-1963Y876D01*
X-1915Y760D01*
X-1839Y661D01*
Y661D01*
X-1740Y585D01*
X-1740Y585D01*
X-1624Y537D01*
X-1624Y537D01*
X-1535Y525D01*
X-883Y-127D01*
X-883Y-170D01*
X-870Y-269D01*
X-832Y-362D01*
X-832Y-362D01*
X-771Y-441D01*
X-771D01*
X-692Y-502D01*
X-599Y-540D01*
X-500Y-553D01*
X-500Y-553D01*
X-401Y-540D01*
X-401Y-540D01*
X-308Y-502D01*
X-308D01*
X-250Y-457D01*
X-192Y-502D01*
X-192D01*
X-99Y-540D01*
X-99Y-540D01*
X-12Y-552D01*
X0Y-553D01*
X0Y-553D01*
X99Y-540D01*
X185Y-505D01*
X234Y-492D01*
X380Y-471D01*
Y-195D01*
X383Y-170D01*
Y0D01*
X500D01*
Y120D01*
X782D01*
Y170D01*
X782Y170D01*
X782Y170D01*
X773Y243D01*
X773Y243D01*
X745Y311D01*
X745Y311D01*
X700Y370D01*
Y370D01*
X641Y415D01*
X641Y415D01*
X573Y443D01*
X573Y443D01*
X500Y452D01*
X361Y1228D01*
Y3851D01*
X1413Y4903D01*
X1413Y4903D01*
X2137Y5055D01*
X2380Y5090D01*
Y5500D01*
X2500D01*
Y5620D01*
X2800D01*
Y5850D01*
X2466Y5898D01*
X1898Y6426D01*
X1861Y6497D01*
Y6918D01*
X2105Y7605D01*
X2380D01*
Y8000D01*
Y8400D01*
X2346Y8402D01*
X1629Y8483D01*
X1556Y8492D01*
X1500Y8500D01*
X1371Y8483D01*
X1250Y8433D01*
X1250Y8433D01*
X1112Y8353D01*
X888D01*
X750Y8433D01*
X750Y8433D01*
X629Y8483D01*
X500Y8500D01*
X458Y8495D01*
X318Y8483D01*
X0D01*
X-318D01*
X-458Y8495D01*
X-500Y8500D01*
X-542Y8495D01*
X-682Y8483D01*
X-1000D01*
X-1318D01*
X-1458Y8495D01*
X-1500Y8500D01*
X-1542Y8495D01*
X-1682Y8483D01*
X-2000D01*
X-2318D01*
X-2458Y8495D01*
X-2490Y8498D01*
X-2500Y8500D01*
D02*
G37*
%LPD*%
G54D12*
X1500Y5500D02*
X1700D01*
X-0Y4000D02*
X1500Y5500D01*
X-0Y0D02*
Y4000D01*
X-1500Y1000D02*
X-500Y0D01*
X-1500Y1000D02*
Y5500D01*
X1500Y5700D02*
X1700Y5500D01*
X1500Y5700D02*
Y8000D01*
X500Y5500D02*
Y8000D01*
X-1500Y5500D02*
X-500D01*
X-2500Y6500D02*
X-1500Y5500D01*
X-2500Y6500D02*
Y8000D01*
X-500Y7000D02*
Y8000D01*
X-1500Y7000D02*
Y8000D01*
X-1500Y8000D01*
G54D13*
X500Y5500D02*
D03*
X-500D02*
D03*
X4500Y2000D02*
D03*
Y3000D02*
D03*
Y4000D02*
D03*
Y5000D02*
D03*
Y6000D02*
D03*
Y7000D02*
D03*
Y8000D02*
D03*
X-4500Y2000D02*
D03*
Y3000D02*
D03*
Y4000D02*
D03*
Y5000D02*
D03*
Y6000D02*
D03*
Y7000D02*
D03*
Y8000D02*
D03*
G54D14*
X2500D02*
D03*
G54D15*
X1500D02*
D03*
X500D02*
D03*
X-500D02*
D03*
X-1500D02*
D03*
X-2500D02*
D03*
G54D16*
X0Y0D02*
D03*
X-500D02*
D03*
X500D02*
D03*
G54D17*
X4500Y1000D02*
D03*
X-4500D02*
D03*
G54D18*
X3000Y6500D02*
D03*
X-1500Y1000D02*
D03*
X-500Y7000D02*
D03*
X-1500Y7000D02*
D03*
G54D19*
X1700Y5500D02*
D03*
X2500D02*
D03*
M02*
